<svg width="201" height="201" viewBox="0 0 201 201" fill="none" xmlns="http://www.w3.org/2000/svg">
<g clip-path="url(#clip0_533_2511)">
<g opacity="0.4">
<path opacity="0.4" d="M100.5 188.482C83.0787 188.496 66.0447 183.342 51.5536 173.672C37.0624 164.002 25.7654 150.251 19.0921 134.158C12.4187 118.066 10.669 100.355 14.0643 83.268C17.4596 66.1808 25.8473 50.4847 38.166 38.166C50.4847 25.8473 66.1808 17.4596 83.268 14.0643C100.355 10.669 118.066 12.4187 134.158 19.0921C150.251 25.7654 164.002 37.0624 173.672 51.5536C183.342 66.0447 188.496 83.0787 188.482 100.5C188.44 123.821 179.157 146.175 162.666 162.666C146.175 179.157 123.821 188.44 100.5 188.482V188.482Z" fill="white"/>
<path opacity="0.4" d="M100.5 24.8938C115.453 24.8938 130.071 29.3281 142.505 37.6358C154.938 45.9435 164.629 57.7516 170.351 71.5668C176.073 85.382 177.571 100.584 174.653 115.25C171.736 129.916 164.535 143.388 153.962 153.962C143.388 164.535 129.916 171.736 115.25 174.653C100.584 177.571 85.382 176.073 71.5668 170.351C57.7516 164.629 45.9435 154.938 37.6358 142.505C29.3281 130.071 24.8938 115.453 24.8938 100.5C24.8938 80.448 32.8595 61.2173 47.0384 47.0384C61.2173 32.8595 80.448 24.8938 100.5 24.8938V24.8938ZM100.5 2.2916e-06C80.62 -0.0140671 61.1823 5.86819 44.6458 16.9027C28.1093 27.9372 15.2169 43.6283 7.59941 61.991C-0.0180999 80.3537 -2.01849 100.563 1.85129 120.063C5.72107 139.563 15.2872 157.477 29.3395 171.539C43.3918 185.601 61.2991 195.18 80.7961 199.064C100.293 202.947 120.504 200.961 138.872 193.357C157.24 185.752 172.94 172.871 183.987 156.342C195.033 139.814 200.929 120.38 200.929 100.5C200.901 73.8667 190.313 48.3313 171.487 29.492C152.661 10.6528 127.133 0.0470593 100.5 2.2916e-06V2.2916e-06Z" fill="#06B5B3"/>
</g>
<g opacity="0.8">
<path opacity="0.8" d="M100.5 181.369C84.4854 181.383 68.8266 176.647 55.5051 167.758C42.1836 158.87 31.7982 146.229 25.6632 131.436C19.5281 116.644 17.9193 100.363 21.0401 84.6556C24.1609 68.9481 31.8712 54.5193 43.1953 43.1953C54.5193 31.8713 68.948 24.161 84.6556 21.0401C100.363 17.9193 116.643 19.5282 131.436 25.6632C146.229 31.7982 158.87 42.1836 167.758 55.5051C176.647 68.8266 181.383 84.4854 181.369 100.5C181.327 121.935 172.793 142.48 157.637 157.637C142.48 172.793 121.935 181.327 100.5 181.369V181.369Z" fill="white"/>
<path opacity="0.8" d="M100.5 24.8938C115.453 24.8938 130.071 29.3281 142.505 37.6358C154.938 45.9435 164.629 57.7516 170.351 71.5668C176.073 85.382 177.571 100.584 174.653 115.25C171.736 129.916 164.535 143.388 153.962 153.962C143.388 164.535 129.916 171.736 115.25 174.653C100.584 177.571 85.382 176.073 71.5668 170.351C57.7515 164.629 45.9435 154.938 37.6358 142.505C29.328 130.071 24.8938 115.453 24.8938 100.5C24.8938 80.448 32.8594 61.2173 47.0384 47.0384C61.2173 32.8595 80.448 24.8938 100.5 24.8938V24.8938ZM100.5 14.2251C83.4334 14.211 66.746 19.259 52.5488 28.7304C38.3516 38.2019 27.2825 51.6713 20.7416 67.4347C14.2008 83.1981 12.4821 100.547 15.803 117.288C19.1239 134.028 27.3352 149.408 39.3981 161.48C51.461 173.553 66.8336 181.777 83.5713 185.112C100.309 188.447 117.66 186.742 133.428 180.214C149.197 173.687 162.676 162.629 172.159 148.439C181.642 134.25 186.704 117.567 186.704 100.5C186.676 77.6394 177.587 55.7222 161.428 39.5507C145.27 23.3791 123.361 14.2721 100.5 14.2251V14.2251Z" fill="#06B5B3"/>
</g>
<path d="M147.585 99.3264L131.848 114.672L135.565 136.347C135.911 138.332 135.694 140.374 134.938 142.242C134.182 144.11 132.917 145.728 131.287 146.914C129.658 148.099 127.729 148.803 125.719 148.947C123.709 149.091 121.699 148.668 119.917 147.727L100.5 137.485L80.9406 147.727C79.1588 148.668 77.1489 149.091 75.139 148.947C73.1292 148.803 71.1999 148.099 69.5703 146.914C67.9407 145.728 66.6761 144.11 65.92 142.242C65.1639 140.374 64.9467 138.332 65.293 136.347L69.0093 114.672L53.344 99.3264C51.8971 97.9238 50.8725 96.1435 50.3866 94.1877C49.9007 92.232 49.973 90.1792 50.5953 88.2625C51.2175 86.3458 52.3648 84.642 53.9067 83.3445C55.4487 82.0471 57.3236 81.2081 59.3185 80.9228L81.0828 77.7755L90.8092 58.0382C91.7017 56.2352 93.0803 54.7176 94.7895 53.6565C96.4987 52.5954 98.4704 52.0331 100.482 52.0331C102.494 52.0331 104.466 52.5954 106.175 53.6565C107.884 54.7176 109.263 56.2352 110.155 58.0382L119.882 77.7755L141.646 80.9228C143.638 81.2136 145.509 82.0566 147.046 83.3562C148.583 84.6559 149.726 86.3602 150.344 88.276C150.962 90.1917 151.031 92.2424 150.544 94.1955C150.056 96.1486 149.031 97.9261 147.585 99.3264V99.3264Z" fill="#F36F31"/>
</g>
<defs>
<clipPath id="clip0_533_2511">
<rect width="201" height="201" fill="white"/>
</clipPath>
</defs>
</svg>
