<svg width="335" height="66" viewBox="0 0 335 66" fill="none" xmlns="http://www.w3.org/2000/svg">
<path d="M192.714 19.926L188.52 23.9727L189.513 29.6921C189.603 30.2155 189.544 30.7536 189.342 31.2453C189.139 31.7369 188.802 32.1625 188.367 32.4737C187.933 32.7849 187.42 32.9692 186.886 33.0059C186.351 33.0425 185.817 32.93 185.344 32.681L180.169 29.9873L174.995 32.681C174.524 32.91 173.999 33.0066 173.477 32.9602C172.954 32.9139 172.455 32.7264 172.033 32.4182C171.61 32.11 171.281 31.6928 171.082 31.2121C170.882 30.7315 170.819 30.2057 170.9 29.6921L171.893 23.9727L167.699 19.926C167.315 19.5587 167.044 19.0913 166.916 18.5776C166.789 18.064 166.811 17.5252 166.979 17.0233C167.142 16.5181 167.445 16.0683 167.853 15.7248C168.261 15.3814 168.758 15.1579 169.287 15.0799L175.082 14.2558L177.663 9.05297C177.899 8.57524 178.265 8.1727 178.72 7.89114C179.175 7.60957 179.701 7.4603 180.238 7.4603C180.774 7.4603 181.3 7.60957 181.755 7.89114C182.21 8.1727 182.577 8.57524 182.812 9.05297L185.393 14.2558L191.176 15.0799C191.706 15.1543 192.205 15.3745 192.615 15.7154C193.026 16.0564 193.331 16.5045 193.498 17.009C193.665 17.5135 193.685 18.0542 193.558 18.5698C193.43 19.0853 193.16 19.5552 192.777 19.926H192.714Z" fill="white"/>
<path d="M204.317 12.9643C203.348 10.4464 201.826 8.17346 199.862 6.3101C197.821 4.41047 195.398 2.96016 192.752 2.05435C189.687 1.02831 186.468 0.529128 183.234 0.578363H164.472C162.903 0.537343 161.335 0.723809 159.819 1.13186C158.733 1.44736 157.755 2.05136 156.99 2.87844C156.282 3.72503 155.803 4.73689 155.6 5.8181C155.333 7.17521 155.209 8.55602 155.228 9.93855V55.817C155.086 58.1463 155.629 60.4665 156.792 62.4958C157.418 63.2312 158.199 63.8222 159.08 64.2276C159.961 64.633 160.92 64.8431 161.892 64.8431C162.863 64.8431 163.822 64.633 164.703 64.2276C165.584 63.8222 166.365 63.2312 166.991 62.4958C168.088 60.4445 168.594 58.1342 168.456 55.817V42.9759H184.761C187.822 43.0309 190.867 42.5264 193.744 41.4877C196.241 40.5797 198.5 39.1298 200.358 37.2442C202.201 35.3238 203.599 33.0276 204.453 30.5162C205.42 27.6469 205.89 24.6359 205.843 21.6111C205.878 18.6601 205.361 15.7281 204.317 12.9643V12.9643ZM191.821 20.0244L187.937 23.7882L188.855 29.1017C188.92 29.4811 188.901 29.8699 188.799 30.2411C188.697 30.6123 188.514 30.9569 188.263 31.2509C188.013 31.5448 187.701 31.7811 187.349 31.9431C186.997 32.1051 186.613 32.189 186.225 32.189C185.792 32.1908 185.365 32.0851 184.984 31.8815L180.169 29.4215L175.367 31.8815C174.928 32.1156 174.431 32.2223 173.933 32.1893C173.435 32.1562 172.956 31.9848 172.552 31.6946C172.148 31.4045 171.835 31.0074 171.648 30.5488C171.461 30.0902 171.408 29.5887 171.496 29.1017L172.414 23.7882L168.518 20.0244C168.164 19.6791 167.914 19.2433 167.796 18.7655C167.678 18.2877 167.696 17.7868 167.848 17.3185C168 16.8501 168.282 16.4336 168.662 16.1162C169.041 15.7987 169.503 15.5931 169.994 15.5227L175.38 14.7478L177.787 9.91395C178.008 9.47341 178.349 9.10273 178.771 8.84362C179.193 8.58451 179.679 8.44724 180.176 8.44724C180.672 8.44724 181.159 8.58451 181.581 8.84362C182.002 9.10273 182.343 9.47341 182.564 9.91395L184.972 14.7478L190.344 15.5227C190.838 15.5908 191.302 15.7951 191.683 16.1122C192.065 16.4292 192.349 16.8463 192.503 17.3158C192.657 17.7852 192.675 18.2882 192.554 18.7671C192.434 19.2461 192.18 19.6818 191.821 20.0244V20.0244Z" fill="#F36F31"/>
<path d="M142.025 58.523C142.014 59.5325 141.838 60.5335 141.504 61.4873C141.196 62.3453 140.65 63.0999 139.928 63.6643C139.092 64.2754 138.098 64.638 137.062 64.7098C136.12 64.9086 135.142 64.8637 134.223 64.5793C133.304 64.295 132.474 63.7808 131.813 63.0862C130.515 61.3541 129.718 59.3048 129.505 57.1577L123.859 18.3763L123.599 18.241C122.457 23.3659 121.286 28.2859 120.087 33.0008C118.887 37.7157 117.783 41.992 116.774 45.8295C116.203 48.0435 115.632 50.1796 115.061 52.2378C114.491 54.2959 113.92 56.3459 113.349 58.3877C112.988 60.2986 112.039 62.0517 110.631 63.406C109.315 64.4392 107.669 64.9714 105.991 64.9066C104.134 65.0339 102.299 64.4482 100.866 63.2707C99.4988 61.8418 98.5656 60.0599 98.1732 58.1294L87.6631 18.2779L87.4026 18.4132L81.3596 56.2475C81.1858 57.3668 80.9501 58.4738 80.6771 59.5685C80.4233 60.5842 80.0042 61.5522 79.4362 62.4343C78.8882 63.2601 78.1131 63.9131 77.2027 64.3162C76.0436 64.7699 74.7776 64.8851 73.5545 64.6483C72.3581 64.5694 71.2187 64.1124 70.3035 63.3445C69.5994 62.6754 69.1004 61.8226 68.8641 60.8846C68.6141 59.888 68.5344 58.8569 68.6283 57.8342C68.7152 56.7395 68.8517 55.7063 69.0254 54.71L77.0414 9.71719C77.3769 7.24264 78.3753 4.90242 79.9326 2.93998C80.7365 2.13485 81.7086 1.51394 82.7804 1.12084C83.8522 0.727743 84.9979 0.571982 86.1369 0.664502C88.2132 0.566457 90.2521 1.23722 91.8573 2.54638C93.5145 4.18599 94.6567 6.26663 95.1455 8.53641L106.04 47.3424H106.301L116.228 8.53641C116.715 6.31078 117.83 4.26787 119.442 2.64478C121.02 1.27961 123.069 0.570333 125.162 0.664502C128.14 0.664502 130.312 1.47629 131.701 3.12447C133.276 5.23156 134.261 7.71393 134.555 10.3199L141.839 55.2512C141.996 56.3344 142.059 57.4291 142.025 58.523Z" fill="#48B2B2"/>
<path d="M54.5073 54.6361C54.8831 55.6888 55.1492 56.7769 55.3015 57.8833C55.4325 58.8496 55.399 59.8308 55.2022 60.7861C54.9988 61.6581 54.5713 62.4631 53.9613 63.123C53.291 63.8345 52.4302 64.3421 51.4796 64.5867C50.5778 64.95 49.5992 65.0862 48.6314 64.9831C47.6635 64.8801 46.7364 64.5411 45.933 63.9963C44.25 62.5633 43.0865 60.6237 42.6199 58.4737L40.5848 51.8441H15.172L12.8764 58.732C12.3872 60.6821 11.3144 62.44 9.79905 63.7749C9.06626 64.2887 8.22435 64.6291 7.33807 64.7698C6.45178 64.9105 5.54474 64.8479 4.6867 64.5867C3.79827 64.4366 2.97314 64.0333 2.31208 63.4261C1.65103 62.8189 1.18264 62.034 0.964117 61.1673C0.504061 59.1623 0.664051 57.0663 1.42323 55.1527L18.2741 9.3481C19.0607 6.84314 20.4537 4.56706 22.3318 2.71848C24.0513 1.25105 26.269 0.486031 28.5361 0.578301C30.7314 0.440731 32.9008 1.11081 34.6287 2.46018C36.2975 4.11888 37.5033 6.17865 38.1279 8.4379L54.5073 54.6361ZM18.5223 40.4052H37.1352L28.4492 11.4883L18.5223 40.4052Z" fill="#48B2B2"/>
<path d="M278.247 32.6932C278.307 37.1573 277.585 41.5978 276.113 45.8172C274.809 49.5505 272.772 52.9909 270.119 55.94C267.517 58.7525 264.341 60.9832 260.801 62.4835C256.978 64.08 252.863 64.8756 248.715 64.8205C244.534 64.8779 240.386 64.0824 236.529 62.4835C232.969 60.9875 229.771 58.7568 227.148 55.94C224.479 53.0036 222.439 49.5595 221.155 45.8172C218.334 37.2829 218.334 28.079 221.155 19.5447C222.455 15.7887 224.516 12.3357 227.21 9.39732C229.855 6.57878 233.08 4.35575 236.666 2.87841C240.495 1.306 244.607 0.52339 248.752 0.578335C252.844 0.527529 256.902 1.3104 260.677 2.87841C264.227 4.36827 267.416 6.59054 270.033 9.39732C272.726 12.3406 274.794 15.7917 276.113 19.5447C277.594 23.7703 278.316 28.2205 278.247 32.6932ZM264.796 32.8162C264.822 29.8321 264.404 26.8605 263.555 23.9972C262.886 21.6246 261.775 19.397 260.279 17.4291C258.959 15.698 257.246 14.2992 255.279 13.3456C253.231 12.4052 250.996 11.9304 248.739 11.9557C246.45 11.9293 244.184 12.4039 242.101 13.3456C240.095 14.2821 238.346 15.6826 237.001 17.4291C235.506 19.3992 234.391 21.6259 233.713 23.9972C232.89 26.8647 232.493 29.8355 232.534 32.8162C232.499 35.6835 232.896 38.5399 233.713 41.2908C234.402 43.6242 235.516 45.8128 237.001 47.7483C238.357 49.4811 240.104 50.8753 242.101 51.8195C244.175 52.7907 246.446 53.2788 248.739 53.2463C250.953 53.2624 253.141 52.7751 255.135 51.822C257.129 50.8689 258.876 49.4753 260.242 47.7483C261.749 45.823 262.873 43.6318 263.555 41.2908C264.399 38.5444 264.817 35.687 264.796 32.8162V32.8162Z" fill="#48B2B2"/>
<path d="M334.185 44.0607C334.217 46.8372 333.664 49.5897 332.56 52.1417C331.495 54.58 329.912 56.7617 327.919 58.5376C325.799 60.4025 323.322 61.8247 320.635 62.7195C317.525 63.7546 314.261 64.2579 310.981 64.2078C308.427 64.2226 305.879 63.9794 303.375 63.4821C301.268 63.068 299.219 62.4074 297.269 61.5141C295.719 60.816 294.32 59.826 293.15 58.5991C292.208 57.6482 291.621 56.4073 291.487 55.0813C291.401 54.2523 291.489 53.4145 291.748 52.6213C292.001 51.8425 292.425 51.1286 292.989 50.5304C293.561 49.896 294.269 49.396 295.061 49.0667C295.96 48.6941 296.928 48.5099 297.902 48.5255C298.957 48.5351 300.001 48.7395 300.98 49.1282L304.231 50.4566C305.472 50.9782 306.745 51.4259 308.04 51.7973C309.566 52.22 311.146 52.423 312.731 52.4C313.831 52.4065 314.924 52.2362 315.969 51.8957C316.922 51.5755 317.809 51.088 318.587 50.4566C319.33 49.857 319.928 49.1006 320.337 48.2426C320.775 47.3678 320.996 46.4023 320.982 45.4259C321.015 44.2063 320.742 42.9977 320.188 41.9082C319.626 40.8817 318.837 39.9945 317.88 39.3129C316.731 38.4988 315.48 37.8372 314.158 37.3449C312.693 36.7791 311.018 36.2134 309.194 35.6722C306.65 34.9298 304.162 34.0091 301.749 32.917C299.807 32.0442 298.009 30.8874 296.413 29.4853C295.007 28.2369 293.904 26.6895 293.187 24.959C292.424 23.0459 292.052 21.0012 292.095 18.9444C292.077 16.3489 292.614 13.7791 293.671 11.4046C294.692 9.10883 296.193 7.05444 298.076 5.37764C300.078 3.63557 302.399 2.29101 304.913 1.41709C307.782 0.438612 310.801 -0.0399495 313.835 0.00260806C316.042 -0.0160309 318.245 0.185884 320.412 0.605298C322.199 0.931423 323.932 1.5027 325.561 2.30268C326.847 2.9344 327.981 3.83196 328.887 4.93484C329.653 5.8887 330.069 7.07311 330.065 8.29271C330.08 9.72869 329.599 11.1264 328.701 12.2532C328.221 12.84 327.607 13.3046 326.91 13.6084C326.213 13.9123 325.453 14.0465 324.693 13.9998C323.794 13.9907 322.902 13.8413 322.049 13.557C321.131 13.2618 320.188 12.9297 319.233 12.573C318.277 12.2164 317.322 11.8843 316.354 11.5891C315.455 11.3032 314.518 11.1539 313.574 11.1463C311.43 11.0159 309.31 11.658 307.606 12.9543C306.926 13.4984 306.379 14.1885 306.007 14.9726C305.635 15.7567 305.448 16.6143 305.459 17.4807C305.414 18.558 305.704 19.623 306.291 20.5311C306.909 21.3939 307.715 22.1083 308.648 22.622C309.832 23.2796 311.079 23.8193 312.371 24.2333L317.322 25.8692C322.906 27.7388 327.104 30.0962 329.917 32.9416C331.345 34.4157 332.459 36.16 333.193 38.0704C333.926 39.9808 334.264 42.0181 334.185 44.0607V44.0607Z" fill="#48B2B2"/>
</svg>
