<svg width="24" height="24" viewBox="0 0 24 24" fill="none" xmlns="http://www.w3.org/2000/svg">
<path fill-rule="evenodd" clip-rule="evenodd" d="M5.57266 16.996L2.88569 19.683C2.59306 19.9754 2.59306 20.451 2.88569 20.7436C3.17812 21.0362 3.65369 21.0362 3.94635 20.7436L6.88614 17.8046L12.9041 21.5081C13.4133 21.8215 14.0517 21.8351 14.5737 21.5433C15.0959 21.2515 15.4192 20.7009 15.4192 20.1031V9.27048L20.4488 4.2409C20.7414 3.94827 20.7414 3.4727 20.4488 3.18024C20.1561 2.88761 19.6806 2.88761 19.3881 3.18024L15.4191 7.14902V3.82076C15.4191 3.22302 15.0958 2.67242 14.5737 2.38057C14.0516 2.08873 13.4132 2.10219 12.904 2.41581L4.74105 7.4387C4.71769 7.45375 4.68997 7.46108 4.66225 7.46108H2.81698C1.90564 7.46108 1.16669 8.19998 1.16669 9.11152V14.8122C1.16669 15.7235 1.90559 16.4625 2.81698 16.4625H4.66225C4.68997 16.4625 4.71769 16.47 4.74105 16.485L5.57266 16.996ZM13.9191 10.7707V20.103C13.9191 20.1569 13.8898 20.2072 13.8425 20.2335C13.7946 20.2597 13.7368 20.2591 13.6903 20.2306L7.97591 16.7138L13.9191 10.7707ZM5.66795 15.2933V8.63061L13.6905 3.69327C13.7371 3.66476 13.7949 3.66397 13.8428 3.6903C13.8901 3.71664 13.9194 3.76673 13.9194 3.82078V8.64944L6.6627 15.9052L5.66795 15.2933ZM4.16754 8.96159V14.9623H2.81742C2.73485 14.9623 2.66734 14.8948 2.66734 14.8122V9.11157C2.66734 9.02901 2.73485 8.96149 2.81742 8.96149L4.16754 8.96159Z" fill="white"/>
<path fill-rule="evenodd" clip-rule="evenodd" d="M17.0435 9.88733C17.8764 11.1404 17.8764 12.7841 17.0435 14.0373C16.8144 14.381 16.9082 14.8472 17.2527 15.0771C17.598 15.3062 18.0643 15.2124 18.2926 14.8679C19.4598 13.1135 19.4598 10.811 18.2926 9.0567C18.0643 8.71219 17.5981 8.61834 17.2527 8.84742C16.9082 9.07749 16.8144 9.54374 17.0435 9.8875V9.88733Z" fill="white"/>
<path fill-rule="evenodd" clip-rule="evenodd" d="M19.3167 7.90897C21.1176 10.3013 21.1176 13.6223 19.3167 16.0147C19.0674 16.3463 19.135 16.8171 19.4652 17.0651C19.7969 17.3145 20.2663 17.2482 20.5156 16.9166C22.7171 13.991 22.7171 9.93252 20.5156 7.00743C20.2663 6.67579 19.7969 6.60966 19.4652 6.85894C19.135 7.10682 19.0674 7.57767 19.3167 7.9093V7.90897Z" fill="white"/>
</svg>
