<svg width="286" height="28" viewBox="0 0 286 28" fill="none" xmlns="http://www.w3.org/2000/svg">
<path d="M0 27.072V0.792001H9.684L19.584 22.284H20.808L20.088 22.932V0.792001H25.632V27.072H15.876L5.976 5.58H4.752L5.472 4.932V27.072H0Z" fill="white"/>
<path d="M35.5352 27.072V0.792001H41.2952V27.072H35.5352ZM40.5752 27.072V22.176H52.0592V27.072H40.5752ZM40.5752 16.164V11.268H51.2312V16.164H40.5752ZM40.5752 5.688V0.792001H51.8072V5.688H40.5752Z" fill="white"/>
<path d="M58.2822 27.072L67.2462 13.068L67.3182 13.68L59.0382 0.792001H65.5182L70.6302 9H71.4582L76.4982 0.792001H82.7982L74.4822 13.752L74.3742 13.176L83.6262 27.072H77.1102L71.1342 17.784H70.2701L64.5822 27.072H58.2822Z" fill="white"/>
<path d="M96.1809 27.072V5.22H102.085V27.072H96.1809ZM88.8009 5.94V0.792001H109.501V5.94H88.8009Z" fill="white"/>
<path d="M128.773 27.072V0.575999H134.677V27.072H128.773ZM144.721 27.072L137.017 15.768H143.497L151.561 27.072H144.721ZM133.093 18.648V14.004H139.573C140.437 14.004 141.181 13.836 141.805 13.5C142.453 13.14 142.945 12.648 143.281 12.024C143.641 11.376 143.821 10.632 143.821 9.792C143.821 8.952 143.641 8.22 143.281 7.596C142.945 6.948 142.453 6.456 141.805 6.12C141.181 5.76 140.437 5.58 139.573 5.58H133.093V0.575999H139.105C141.289 0.575999 143.185 0.912 144.793 1.584C146.401 2.232 147.637 3.204 148.501 4.5C149.365 5.796 149.797 7.428 149.797 9.396V9.972C149.797 11.916 149.353 13.536 148.465 14.832C147.601 16.104 146.365 17.064 144.757 17.712C143.173 18.336 141.289 18.648 139.105 18.648H133.093Z" fill="white"/>
<path d="M171.354 27.756C168.978 27.756 166.902 27.348 165.126 26.532C163.374 25.692 161.922 24.6 160.77 23.256C159.618 21.888 158.754 20.412 158.178 18.828C157.626 17.244 157.35 15.72 157.35 14.256V13.464C157.35 11.832 157.638 10.224 158.214 8.64C158.814 7.032 159.702 5.58 160.878 4.284C162.054 2.988 163.518 1.956 165.27 1.188C167.022 0.396 169.05 0 171.354 0C173.658 0 175.686 0.396 177.438 1.188C179.19 1.956 180.654 2.988 181.83 4.284C183.006 5.58 183.894 7.032 184.494 8.64C185.094 10.224 185.394 11.832 185.394 13.464V14.256C185.394 15.72 185.106 17.244 184.53 18.828C183.954 20.412 183.09 21.888 181.938 23.256C180.786 24.6 179.322 25.692 177.546 26.532C175.794 27.348 173.73 27.756 171.354 27.756ZM171.354 22.248C172.602 22.248 173.718 22.032 174.702 21.6C175.71 21.168 176.562 20.568 177.258 19.8C177.978 19.032 178.518 18.144 178.878 17.136C179.238 16.128 179.418 15.048 179.418 13.896C179.418 12.672 179.226 11.556 178.842 10.548C178.482 9.516 177.942 8.628 177.222 7.884C176.526 7.116 175.686 6.528 174.702 6.12C173.718 5.712 172.602 5.508 171.354 5.508C170.106 5.508 168.99 5.712 168.006 6.12C167.022 6.528 166.17 7.116 165.45 7.884C164.754 8.628 164.226 9.516 163.866 10.548C163.506 11.556 163.326 12.672 163.326 13.896C163.326 15.048 163.506 16.128 163.866 17.136C164.226 18.144 164.754 19.032 165.45 19.8C166.17 20.568 167.022 21.168 168.006 21.6C168.99 22.032 170.106 22.248 171.354 22.248Z" fill="white"/>
<path d="M204.883 27.756C202.411 27.756 200.311 27.3 198.583 26.388C196.879 25.452 195.583 24.132 194.695 22.428C193.807 20.724 193.363 18.708 193.363 16.38V0.792001H199.267V16.596C199.267 17.748 199.483 18.756 199.915 19.62C200.371 20.46 201.007 21.108 201.823 21.564C202.663 22.02 203.683 22.248 204.883 22.248C206.107 22.248 207.127 22.02 207.943 21.564C208.783 21.108 209.419 20.46 209.851 19.62C210.283 18.78 210.499 17.772 210.499 16.596V0.792001H216.403V16.38C216.403 18.708 215.959 20.724 215.071 22.428C214.183 24.132 212.887 25.452 211.183 26.388C209.479 27.3 207.379 27.756 204.883 27.756Z" fill="white"/>
<path d="M225.816 27.072V0.792001H235.5L245.4 22.284H246.624L245.904 22.932V0.792001H251.448V27.072H241.692L231.792 5.58H230.568L231.288 4.932V27.072H225.816Z" fill="white"/>
<path d="M266.536 27.216V21.708H271.432C272.656 21.708 273.76 21.528 274.744 21.168C275.728 20.784 276.568 20.256 277.264 19.584C277.96 18.888 278.488 18.06 278.848 17.1C279.208 16.116 279.388 15.036 279.388 13.86C279.388 12.636 279.208 11.544 278.848 10.584C278.488 9.624 277.96 8.808 277.264 8.136C276.568 7.464 275.728 6.96 274.744 6.624C273.76 6.264 272.656 6.084 271.432 6.084H266.536V0.575999H271.108C273.484 0.575999 275.56 0.924 277.336 1.62C279.112 2.316 280.6 3.264 281.8 4.464C283 5.664 283.888 7.044 284.464 8.604C285.064 10.14 285.364 11.76 285.364 13.464V14.256C285.364 15.84 285.064 17.412 284.464 18.972C283.888 20.508 283 21.9 281.8 23.148C280.6 24.372 279.112 25.356 277.336 26.1C275.56 26.844 273.484 27.216 271.108 27.216H266.536ZM261.352 27.216V0.575999H267.256V27.216H261.352Z" fill="white"/>
</svg>
