<svg width="24" height="24" viewBox="0 0 24 24" fill="none" xmlns="http://www.w3.org/2000/svg">
<path fill-rule="evenodd" clip-rule="evenodd" d="M12.7374 21.3373C13.2466 21.6507 13.885 21.6643 14.407 21.3725C14.9292 21.0807 15.2525 20.5301 15.2525 19.9323L15.2524 3.64998C15.2524 3.05224 14.9291 2.50164 14.407 2.20979C13.8849 1.91795 13.2465 1.93141 12.7373 2.24503L4.57436 7.26792C4.551 7.28297 4.52328 7.2903 4.49556 7.2903H2.65029C1.73895 7.2903 1 8.0292 1 8.94074V14.6414C1 15.5527 1.7389 16.2917 2.65029 16.2917H4.49556C4.52328 16.2917 4.551 16.2992 4.57436 16.3142L12.7374 21.3373ZM13.7552 19.9008C13.7552 19.9649 13.7205 20.0239 13.6646 20.0551C13.6087 20.0863 13.5403 20.0848 13.4858 20.0512L5.50125 15.1225V8.45985L13.5238 3.52251C13.5704 3.494 13.6282 3.4932 13.6761 3.51953C13.7234 3.54587 13.7527 3.59596 13.7527 3.65001C13.7527 3.65001 13.7544 14.5381 13.7552 19.9009V19.9008ZM4.00085 8.79081V14.7915H2.65073C2.56816 14.7915 2.50065 14.724 2.50065 14.6414V8.94079C2.50065 8.85823 2.56816 8.79071 2.65073 8.79071L4.00085 8.79081Z" fill="white"/>
</svg>
