<svg width="134" height="28" viewBox="0 0 134 28" fill="none" xmlns="http://www.w3.org/2000/svg">
<path d="M10.98 27.756C8.604 27.756 6.6 27.384 4.968 26.64C3.336 25.872 2.1 24.84 1.26 23.544C0.42 22.224 0 20.712 0 19.008H5.724C5.724 19.68 5.904 20.304 6.264 20.88C6.648 21.456 7.224 21.924 7.992 22.284C8.76 22.62 9.756 22.788 10.98 22.788C12.084 22.788 13.008 22.644 13.752 22.356C14.496 22.068 15.06 21.672 15.444 21.168C15.828 20.64 16.02 20.04 16.02 19.368C16.02 18.528 15.66 17.868 14.94 17.388C14.22 16.884 13.056 16.56 11.448 16.416L9.468 16.236C6.852 16.02 4.764 15.204 3.204 13.788C1.644 12.372 0.864 10.5 0.864 8.172C0.864 6.492 1.26 5.04 2.052 3.816C2.868 2.592 3.996 1.656 5.436 1.008C6.876 0.336 8.58 0 10.548 0C12.612 0 14.376 0.36 15.84 1.08C17.328 1.776 18.468 2.772 19.26 4.068C20.052 5.34 20.448 6.84 20.448 8.568H14.688C14.688 7.92 14.532 7.332 14.22 6.804C13.908 6.252 13.44 5.808 12.816 5.472C12.216 5.136 11.46 4.968 10.548 4.968C9.684 4.968 8.952 5.112 8.352 5.4C7.776 5.688 7.344 6.084 7.056 6.588C6.768 7.068 6.624 7.596 6.624 8.172C6.624 8.916 6.888 9.564 7.416 10.116C7.944 10.668 8.808 10.992 10.008 11.088L12.024 11.268C13.944 11.436 15.636 11.856 17.1 12.528C18.564 13.176 19.704 14.076 20.52 15.228C21.36 16.356 21.78 17.736 21.78 19.368C21.78 21.048 21.336 22.524 20.448 23.796C19.584 25.044 18.348 26.016 16.74 26.712C15.132 27.408 13.212 27.756 10.98 27.756Z" fill="white"/>
<path d="M34.3294 27.072V5.22H40.2334V27.072H34.3294ZM26.9494 5.94V0.792001H47.6494V5.94H26.9494Z" fill="white"/>
<path d="M50.559 27.072L59.235 0.792001H68.775L77.775 27.072H71.655L64.383 4.86L66.255 5.616H61.611L63.555 4.86L56.463 27.072H50.559ZM57.147 20.556L58.947 15.66H69.243L71.079 20.556H57.147Z" fill="white"/>
<path d="M85.2032 27.072V0.575999H91.1072V27.072H85.2032ZM101.151 27.072L93.4472 15.768H99.9272L107.991 27.072H101.151ZM89.5232 18.648V14.004H96.0032C96.8672 14.004 97.6112 13.836 98.2352 13.5C98.8832 13.14 99.3752 12.648 99.7112 12.024C100.071 11.376 100.251 10.632 100.251 9.792C100.251 8.952 100.071 8.22 99.7112 7.596C99.3752 6.948 98.8832 6.456 98.2352 6.12C97.6112 5.76 96.8672 5.58 96.0032 5.58H89.5232V0.575999H95.5352C97.7192 0.575999 99.6152 0.912 101.223 1.584C102.831 2.232 104.067 3.204 104.931 4.5C105.795 5.796 106.227 7.428 106.227 9.396V9.972C106.227 11.916 105.783 13.536 104.895 14.832C104.031 16.104 102.795 17.064 101.187 17.712C99.6032 18.336 97.7192 18.648 95.5352 18.648H89.5232Z" fill="white"/>
<path d="M119.982 27.072V5.22H125.886V27.072H119.982ZM112.602 5.94V0.792001H133.302V5.94H112.602Z" fill="white"/>
</svg>
