<svg width="371" height="79" viewBox="0 0 371 79" fill="none" xmlns="http://www.w3.org/2000/svg">
<g clip-path="url(#clip0_533_3737)">
<path d="M124.777 47.482L122.695 49.5039L123.188 52.3617C123.233 52.6232 123.203 52.8921 123.103 53.1377C123.002 53.3834 122.835 53.596 122.619 53.7515C122.404 53.907 122.149 53.9992 121.883 54.0175C121.618 54.0358 121.353 53.9795 121.118 53.8551L118.55 52.5092L115.981 53.8551C115.748 53.9695 115.487 54.0178 115.228 53.9947C114.968 53.9715 114.72 53.8778 114.511 53.7238C114.301 53.5698 114.138 53.3614 114.039 53.1212C113.94 52.881 113.908 52.6183 113.949 52.3617L114.441 49.5039L112.36 47.482C112.169 47.2985 112.034 47.0649 111.971 46.8082C111.908 46.5516 111.919 46.2824 112.002 46.0316C112.083 45.7792 112.234 45.5544 112.436 45.3828C112.639 45.2112 112.885 45.0996 113.148 45.0606L116.024 44.6488L117.305 42.0492C117.423 41.8104 117.604 41.6093 117.83 41.4686C118.056 41.3279 118.317 41.2534 118.584 41.2534C118.85 41.2534 119.111 41.3279 119.337 41.4686C119.563 41.6093 119.745 41.8104 119.862 42.0492L121.143 44.6488L124.013 45.0606C124.276 45.0977 124.524 45.2078 124.728 45.3781C124.931 45.5485 125.083 45.7724 125.166 46.0245C125.249 46.2766 125.259 46.5467 125.196 46.8043C125.132 47.0619 124.998 47.2967 124.808 47.482H124.777Z" fill="white"/>
<path d="M130.536 44.0035C130.055 42.7454 129.3 41.6097 128.325 40.6787C127.312 39.7295 126.109 39.0048 124.795 38.5522C123.274 38.0396 121.676 37.7902 120.071 37.8148H110.758C109.979 37.7943 109.201 37.8874 108.448 38.0913C107.909 38.249 107.424 38.5508 107.044 38.964C106.692 39.387 106.455 39.8926 106.354 40.4328C106.222 41.1109 106.16 41.8009 106.169 42.4917V65.4153C106.099 66.5792 106.368 67.7384 106.945 68.7524C107.256 69.1199 107.644 69.4152 108.081 69.6177C108.519 69.8203 108.995 69.9252 109.477 69.9252C109.959 69.9252 110.435 69.8203 110.872 69.6177C111.31 69.4152 111.697 69.1199 112.008 68.7524C112.553 67.7275 112.804 66.5731 112.735 65.4153V58.9991H120.829C122.348 59.0266 123.86 58.7745 125.288 58.2555C126.527 57.8018 127.649 57.0774 128.571 56.1352C129.486 55.1756 130.179 54.0283 130.604 52.7735C131.084 51.3398 131.317 49.8354 131.293 48.324C131.311 46.8495 131.054 45.3845 130.536 44.0035V44.0035ZM124.333 47.5312L122.405 49.4118L122.861 52.0667C122.894 52.2563 122.884 52.4506 122.833 52.636C122.782 52.8215 122.692 52.9937 122.567 53.1406C122.443 53.2875 122.288 53.4055 122.113 53.4865C121.939 53.5674 121.748 53.6093 121.555 53.6093C121.341 53.6102 121.129 53.5574 120.94 53.4557L118.55 52.2265L116.166 53.4557C115.948 53.5727 115.701 53.626 115.454 53.6094C115.207 53.5929 114.969 53.5073 114.769 53.3623C114.568 53.2173 114.413 53.0189 114.32 52.7898C114.227 52.5606 114.201 52.31 114.244 52.0667L114.7 49.4118L112.766 47.5312C112.591 47.3586 112.467 47.1409 112.408 46.9021C112.349 46.6634 112.358 46.4131 112.433 46.1791C112.509 45.9451 112.649 45.737 112.838 45.5784C113.026 45.4198 113.255 45.317 113.499 45.2818L116.172 44.8947L117.367 42.4794C117.477 42.2593 117.646 42.074 117.855 41.9446C118.065 41.8151 118.306 41.7465 118.553 41.7465C118.799 41.7465 119.041 41.8151 119.25 41.9446C119.46 42.074 119.629 42.2593 119.738 42.4794L120.933 44.8947L123.6 45.2818C123.845 45.3159 124.076 45.4179 124.265 45.5764C124.454 45.7348 124.595 45.9432 124.672 46.1778C124.748 46.4123 124.757 46.6636 124.697 46.9029C124.637 47.1423 124.511 47.36 124.333 47.5312V47.5312Z" fill="#F36F31"/>
<path d="M99.6158 66.7673C99.6103 67.2717 99.5229 67.7719 99.3571 68.2485C99.204 68.6772 98.9329 69.0542 98.5748 69.3363C98.1599 69.6416 97.6664 69.8228 97.152 69.8586C96.6845 69.958 96.1992 69.9355 95.7429 69.7934C95.2865 69.6514 94.8746 69.3944 94.5466 69.0474C93.9025 68.1819 93.5065 67.158 93.401 66.0852L90.5984 46.7076L90.4691 46.64C89.9024 49.2008 89.3214 51.6591 88.726 54.0149C88.1306 56.3708 87.5824 58.5075 87.0814 60.4249C86.7981 61.5312 86.5148 62.5985 86.2314 63.6269C85.9481 64.6553 85.6648 65.6795 85.3814 66.6997C85.2022 67.6545 84.731 68.5305 84.0325 69.2072C83.379 69.7234 82.5619 69.9894 81.7289 69.957C80.8073 70.0206 79.8964 69.7279 79.1851 69.1396C78.5065 68.4256 78.0433 67.5353 77.8485 66.5707L72.6315 46.6585L72.5022 46.7261L69.5025 65.6304C69.4163 66.1896 69.2993 66.7428 69.1638 67.2897C69.0378 67.7973 68.8298 68.2809 68.5478 68.7217C68.2758 69.1343 67.8911 69.4606 67.4392 69.662C66.8638 69.8887 66.2354 69.9462 65.6283 69.8279C65.0344 69.7885 64.4688 69.5602 64.0145 69.1765C63.665 68.8421 63.4173 68.416 63.3 67.9473C63.1759 67.4494 63.1364 66.9342 63.183 66.4232C63.2261 65.8762 63.2939 65.36 63.3801 64.8622L67.3591 42.381C67.5256 41.1446 68.0212 39.9753 68.7942 38.9947C69.1933 38.5924 69.6758 38.2822 70.2078 38.0858C70.7398 37.8894 71.3085 37.8115 71.8739 37.8578C72.9046 37.8088 73.9166 38.1439 74.7134 38.7981C75.536 39.6173 76.103 40.6569 76.3456 41.791L81.7536 61.1809H81.8829L86.8104 41.791C87.0525 40.679 87.6056 39.6582 88.4057 38.8472C89.1893 38.1651 90.2063 37.8107 91.2452 37.8578C92.7234 37.8578 93.8013 38.2634 94.4912 39.0869C95.2728 40.1397 95.7616 41.3801 95.9078 42.6822L99.5234 65.1326C99.6015 65.6738 99.6324 66.2208 99.6158 66.7673Z" fill="white"/>
<path d="M56.1736 64.8253C56.3602 65.3513 56.4923 65.8949 56.5678 66.4478C56.6329 66.9306 56.6162 67.4209 56.5186 67.8982C56.4176 68.3339 56.2054 68.7361 55.9026 69.0659C55.5699 69.4213 55.1426 69.675 54.6707 69.7972C54.2231 69.9787 53.7374 70.0468 53.2569 69.9953C52.7765 69.9438 52.3163 69.7744 51.9175 69.5022C51.0821 68.7862 50.5045 67.817 50.2729 66.7428L49.2628 63.4302H36.6484L35.5089 66.8718C35.266 67.8462 34.7336 68.7246 33.9814 69.3916C33.6176 69.6483 33.1997 69.8184 32.7598 69.8887C32.3198 69.959 31.8696 69.9277 31.4437 69.7972C31.0027 69.7222 30.5931 69.5207 30.265 69.2173C29.9368 68.9139 29.7043 68.5217 29.5959 68.0887C29.3675 67.0868 29.4469 66.0396 29.8238 65.0834L38.1882 42.1967C38.5786 40.9451 39.2701 39.8078 40.2023 38.8841C41.0559 38.1509 42.1567 37.7687 43.282 37.8148C44.3718 37.746 45.4486 38.0808 46.3063 38.7551C47.1347 39.5838 47.7332 40.613 48.0432 41.7419L56.1736 64.8253ZM38.3114 57.7147H47.5505L43.2389 43.266L38.3114 57.7147Z" fill="white"/>
<path d="M167.234 53.8613C167.263 56.0918 166.905 58.3105 166.174 60.4188C165.527 62.2842 164.516 64.0032 163.199 65.4767C161.907 66.882 160.331 67.9966 158.573 68.7463C156.676 69.544 154.633 69.9415 152.574 69.914C150.499 69.9426 148.44 69.5452 146.526 68.7463C144.758 67.9988 143.171 66.8842 141.869 65.4767C140.544 64.0095 139.532 62.2887 138.894 60.4188C137.494 56.1545 137.494 51.5557 138.894 47.2915C139.54 45.4148 140.562 43.6894 141.9 42.2212C143.213 40.8129 144.813 39.7022 146.593 38.964C148.494 38.1783 150.535 37.7873 152.593 37.8147C154.624 37.7894 156.638 38.1805 158.512 38.964C160.274 39.7084 161.857 40.8188 163.156 42.2212C164.493 43.6919 165.52 45.4163 166.174 47.2915C166.909 49.4028 167.268 51.6264 167.234 53.8613ZM160.557 53.9227C160.57 52.4317 160.362 50.9469 159.941 49.5162C159.608 48.3307 159.057 47.2177 158.315 46.2344C157.659 45.3695 156.809 44.6705 155.832 44.194C154.816 43.7242 153.707 43.4869 152.586 43.4995C151.45 43.4864 150.325 43.7235 149.291 44.194C148.296 44.662 147.428 45.3617 146.76 46.2344C146.018 47.2188 145.464 48.3314 145.127 49.5162C144.719 50.949 144.522 52.4334 144.542 53.9227C144.525 55.3554 144.722 56.7826 145.127 58.1571C145.47 59.3231 146.023 60.4166 146.76 61.3837C147.433 62.2495 148.3 62.9461 149.291 63.4179C150.321 63.9032 151.448 64.147 152.586 64.1308C153.685 64.1388 154.771 63.8954 155.761 63.4192C156.751 62.9429 157.618 62.2466 158.296 61.3837C159.044 60.4217 159.602 59.3268 159.941 58.1571C160.359 56.7848 160.567 55.3571 160.557 53.9227V53.9227Z" fill="white"/>
<path d="M195 59.8472C195.016 61.2345 194.741 62.6098 194.193 63.885C193.665 65.1033 192.879 66.1934 191.89 67.0808C190.837 68.0126 189.608 68.7232 188.274 69.1703C186.73 69.6875 185.11 69.939 183.482 69.9139C182.214 69.9213 180.949 69.7998 179.706 69.5513C178.661 69.3444 177.643 69.0143 176.676 68.568C175.906 68.2192 175.212 67.7245 174.631 67.1115C174.163 66.6364 173.872 66.0163 173.806 65.3538C173.763 64.9396 173.807 64.521 173.935 64.1247C174.061 63.7355 174.271 63.3788 174.551 63.0799C174.835 62.7629 175.186 62.5131 175.579 62.3485C176.026 62.1624 176.506 62.0703 176.99 62.0781C177.513 62.0829 178.032 62.1851 178.518 62.3793L180.131 63.043C180.748 63.3037 181.379 63.5274 182.022 63.7129C182.78 63.9241 183.564 64.0255 184.35 64.014C184.896 64.0173 185.439 63.9322 185.958 63.7621C186.431 63.6021 186.871 63.3585 187.258 63.043C187.626 62.7434 187.923 62.3655 188.126 61.9368C188.343 61.4997 188.453 61.0172 188.446 60.5294C188.463 59.92 188.327 59.3161 188.052 58.7717C187.773 58.2588 187.382 57.8155 186.907 57.475C186.336 57.0682 185.715 56.7376 185.059 56.4916C184.332 56.2089 183.5 55.9262 182.595 55.6558C181.332 55.2849 180.097 54.8248 178.899 54.2792C177.936 53.8431 177.043 53.2651 176.251 52.5645C175.553 51.9407 175.006 51.1676 174.649 50.3029C174.27 49.347 174.086 48.3254 174.107 47.2976C174.098 46.0008 174.365 44.7167 174.89 43.5303C175.396 42.3832 176.142 41.3567 177.076 40.5189C178.07 39.6484 179.222 38.9766 180.47 38.5399C181.894 38.051 183.393 37.8119 184.899 37.8332C185.994 37.8239 187.088 37.9248 188.163 38.1343C189.05 38.2973 189.911 38.5827 190.719 38.9824C191.357 39.2981 191.92 39.7466 192.37 40.2976C192.751 40.7742 192.957 41.366 192.955 41.9754C192.962 42.6929 192.723 43.3913 192.278 43.9543C192.04 44.2475 191.735 44.4797 191.389 44.6315C191.043 44.7833 190.665 44.8503 190.288 44.827C189.842 44.8225 189.399 44.7478 188.976 44.6058C188.52 44.4583 188.052 44.2924 187.578 44.1141C187.104 43.9359 186.629 43.77 186.149 43.6225C185.703 43.4796 185.238 43.405 184.769 43.4012C183.705 43.3361 182.653 43.6569 181.807 44.3046C181.469 44.5765 181.198 44.9213 181.013 45.3131C180.828 45.7049 180.735 46.1334 180.741 46.5663C180.719 47.1045 180.863 47.6367 181.154 48.0904C181.461 48.5215 181.861 48.8785 182.324 49.1352C182.912 49.4638 183.531 49.7334 184.172 49.9403L186.629 50.7577C189.401 51.6918 191.485 52.8698 192.881 54.2915C193.59 55.028 194.143 55.8996 194.507 56.8541C194.871 57.8087 195.039 58.8266 195 59.8472V59.8472Z" fill="white"/>
<path d="M30.0147 10.7674L26.4238 14.2643L27.2676 19.1809C27.3275 19.5328 27.3099 19.8935 27.216 20.238C27.1221 20.5825 26.9541 20.9024 26.7238 21.1755C26.4934 21.4486 26.2062 21.6684 25.8821 21.8196C25.558 21.9708 25.2047 22.0497 24.847 22.0509C24.4476 22.0522 24.0541 21.9551 23.7013 21.7682L19.2543 19.439L14.8133 21.7682C14.407 21.979 13.9499 22.0726 13.4932 22.0385C13.0365 22.0044 12.5984 21.844 12.228 21.5753C11.8577 21.3066 11.5697 20.9402 11.3964 20.5173C11.2231 20.0943 11.1714 19.6315 11.2471 19.1809L12.0909 14.2643L8.49997 10.7674C8.17146 10.4478 7.93891 10.043 7.8285 9.59872C7.7181 9.15439 7.73423 8.68813 7.87508 8.25245C8.01593 7.81678 8.27591 7.429 8.62572 7.1328C8.97554 6.8366 9.4013 6.64374 9.85504 6.57596L14.8257 5.85691L17.043 1.37052C17.2467 0.959813 17.5614 0.614098 17.9516 0.372388C18.3418 0.130677 18.7919 0.00259399 19.2512 0.00259399C19.7104 0.00259399 20.1606 0.130677 20.5507 0.372388C20.9409 0.614098 21.2556 0.959813 21.4593 1.37052L23.6767 5.85691L28.6473 6.57596C29.1016 6.6428 29.5281 6.83498 29.8787 7.1308C30.2293 7.42661 30.4901 7.81431 30.6316 8.25014C30.7732 8.68597 30.7898 9.1526 30.6797 9.59737C30.5696 10.0422 30.3372 10.4474 30.0085 10.7674H30.0147Z" fill="#F36F31"/>
<path d="M49.1026 6.88323L48.265 9.79632L50.1928 12.1317C50.3775 12.3453 50.4974 12.6069 50.5387 12.886C50.58 13.165 50.5409 13.45 50.4259 13.7077C50.311 13.9655 50.125 14.1852 49.8896 14.3415C49.6542 14.4977 49.3791 14.5839 49.0965 14.59L46.0661 14.6945L44.4338 17.2081C44.2837 17.4412 44.0713 17.6279 43.8206 17.747C43.5699 17.8661 43.2907 17.913 43.0147 17.8823C42.7387 17.8517 42.4768 17.7447 42.2585 17.5734C42.0402 17.4022 41.8741 17.1735 41.7791 16.9131L40.7443 14.0738L37.8063 13.3117C37.5374 13.2418 37.2933 13.0984 37.1018 12.8975C36.9102 12.6966 36.7788 12.4462 36.7223 12.1747C36.6646 11.9038 36.6849 11.6222 36.7809 11.3623C36.8768 11.1024 37.0443 10.8748 37.2643 10.7059L39.6541 8.86216L39.4693 5.8446C39.4541 5.56801 39.5156 5.29258 39.6471 5.04861C39.7786 4.80464 39.9749 4.60159 40.2146 4.46181C40.4562 4.32504 40.7312 4.25832 41.0087 4.26918C41.2863 4.28004 41.5552 4.36804 41.7853 4.52327L44.3045 6.21335L47.1255 5.10712C47.3837 5.00646 47.665 4.97965 47.9376 5.02972C48.2103 5.07979 48.4636 5.20475 48.669 5.39054C48.8744 5.57634 49.0238 5.81561 49.1004 6.08148C49.177 6.34734 49.1778 6.62925 49.1026 6.89553V6.88323Z" fill="#F36F31"/>
<path d="M13.2612 29.4995L11.7891 32.1422L13.138 34.8525C13.234 35.0466 13.2863 35.2593 13.2914 35.4758C13.2964 35.6922 13.2541 35.9071 13.1673 36.1055C13.0805 36.3039 12.9513 36.481 12.7888 36.6244C12.6263 36.7678 12.4344 36.8741 12.2264 36.9359C11.9939 36.9944 11.7505 36.9944 11.5181 36.9359L8.53693 36.3582L6.36883 38.4723C6.17196 38.6683 5.92367 38.8049 5.65249 38.8664C5.38131 38.928 5.09824 38.9119 4.83579 38.8201C4.57334 38.7284 4.34216 38.5646 4.16881 38.3476C3.99546 38.1306 3.88697 37.8692 3.8558 37.5935L3.48624 34.5882L0.800744 33.2177C0.554079 33.0893 0.348374 32.8945 0.206908 32.6554C0.0654424 32.4163 -0.00613588 32.1425 0.000273565 31.865C0.00668301 31.5874 0.0908243 31.3172 0.243175 31.0849C0.395526 30.8526 0.610005 30.6675 0.862338 30.5505L3.61558 29.2783L4.12065 26.2915C4.16607 26.018 4.28782 25.7628 4.47193 25.5552C4.65604 25.3476 4.89506 25.1959 5.16159 25.1176C5.42759 25.0395 5.71012 25.0366 5.97766 25.1093C6.24521 25.182 6.48725 25.3275 6.6768 25.5294L8.74019 27.748L11.746 27.3055C12.0214 27.2637 12.303 27.3 12.5587 27.4103C12.8143 27.5206 13.0337 27.7005 13.1918 27.9294C13.3498 28.1582 13.4402 28.4268 13.4524 28.7045C13.4647 28.9822 13.3984 29.2577 13.2612 29.4995V29.4995Z" fill="#F36F31"/>
</g>
<path d="M215.664 69V36.88H219.976V69H215.664ZM219.096 69V65.128H233.792V69H219.096Z" fill="white"/>
<path d="M249.634 69.792C247.58 69.792 245.776 69.44 244.222 68.736C242.667 68.032 241.347 67.108 240.262 65.964C239.206 64.7907 238.399 63.4853 237.842 62.048C237.314 60.6107 237.05 59.144 237.05 57.648V56.856C237.05 55.36 237.328 53.8933 237.886 52.456C238.443 50.9893 239.264 49.684 240.35 48.54C241.435 47.3667 242.755 46.4427 244.31 45.768C245.864 45.064 247.639 44.712 249.634 44.712C251.628 44.712 253.403 45.064 254.958 45.768C256.512 46.4427 257.832 47.3667 258.918 48.54C260.003 49.684 260.824 50.9893 261.382 52.456C261.939 53.8933 262.218 55.36 262.218 56.856V57.648C262.218 59.144 261.939 60.6107 261.382 62.048C260.854 63.4853 260.047 64.7907 258.962 65.964C257.906 67.108 256.6 68.032 255.046 68.736C253.491 69.44 251.687 69.792 249.634 69.792ZM249.634 66.008C251.394 66.008 252.89 65.6267 254.122 64.864C255.383 64.072 256.336 63.016 256.982 61.696C257.656 60.376 257.994 58.8947 257.994 57.252C257.994 55.58 257.656 54.084 256.982 52.764C256.307 51.444 255.339 50.4027 254.078 49.64C252.846 48.8773 251.364 48.496 249.634 48.496C247.932 48.496 246.451 48.8773 245.19 49.64C243.928 50.4027 242.96 51.444 242.286 52.764C241.611 54.084 241.274 55.58 241.274 57.252C241.274 58.8947 241.596 60.376 242.242 61.696C242.916 63.016 243.87 64.072 245.102 64.864C246.363 65.6267 247.874 66.008 249.634 66.008Z" fill="white"/>
<path d="M277.696 69.264C275.936 69.264 274.411 69.0147 273.12 68.516C271.859 68.0173 270.876 67.1667 270.172 65.964C269.497 64.732 269.16 63.0747 269.16 60.992V38.376H273.208V61.52C273.208 62.7813 273.545 63.764 274.22 64.468C274.924 65.1427 275.907 65.48 277.168 65.48H281.304V69.264H277.696ZM265.112 48.672V45.504H281.304V48.672H265.112Z" fill="white"/>
<path d="M296.43 69.264C294.67 69.264 293.145 69.0147 291.854 68.516C290.593 68.0173 289.61 67.1667 288.906 65.964C288.232 64.732 287.894 63.0747 287.894 60.992V38.376H291.942V61.52C291.942 62.7813 292.28 63.764 292.954 64.468C293.658 65.1427 294.641 65.48 295.902 65.48H300.038V69.264H296.43ZM283.846 48.672V45.504H300.038V48.672H283.846Z" fill="white"/>
<path d="M315.829 69.792C313.776 69.792 312.001 69.44 310.505 68.736C309.009 68.032 307.792 67.108 306.853 65.964C305.914 64.7907 305.21 63.4853 304.741 62.048C304.301 60.6107 304.081 59.144 304.081 57.648V56.856C304.081 55.3307 304.301 53.8493 304.741 52.412C305.21 50.9747 305.914 49.684 306.853 48.54C307.792 47.3667 308.98 46.4427 310.417 45.768C311.884 45.064 313.6 44.712 315.565 44.712C318.117 44.712 320.214 45.2693 321.857 46.384C323.529 47.4693 324.761 48.8773 325.553 50.608C326.374 52.3387 326.785 54.1867 326.785 56.152V58.044H305.929V54.876H323.705L322.737 56.592C322.737 54.92 322.473 53.4827 321.945 52.28C321.417 51.048 320.625 50.0947 319.569 49.42C318.513 48.7453 317.178 48.408 315.565 48.408C313.893 48.408 312.5 48.7893 311.385 49.552C310.3 50.3147 309.478 51.356 308.921 52.676C308.393 53.996 308.129 55.5213 308.129 57.252C308.129 58.924 308.393 60.4347 308.921 61.784C309.478 63.104 310.329 64.16 311.473 64.952C312.617 65.7147 314.069 66.096 315.829 66.096C317.677 66.096 319.173 65.6853 320.317 64.864C321.49 64.0427 322.194 63.0893 322.429 62.004H326.389C326.066 63.6173 325.421 65.0107 324.453 66.184C323.485 67.3573 322.268 68.252 320.801 68.868C319.334 69.484 317.677 69.792 315.829 69.792Z" fill="white"/>
<path d="M332.782 69V45.504H336.126V55.184H335.95C335.95 51.752 336.698 49.244 338.194 47.66C339.72 46.0467 341.993 45.24 345.014 45.24H345.806V49.024H344.31C341.964 49.024 340.16 49.6547 338.898 50.916C337.637 52.148 337.006 53.9373 337.006 56.284V69H332.782Z" fill="white"/>
<path d="M350.019 78.152V74.368H353.407C354.404 74.368 355.24 74.236 355.915 73.972C356.619 73.7373 357.191 73.3267 357.631 72.74C358.1 72.1533 358.481 71.376 358.775 70.408L366.167 45.504H370.303L362.471 71.508C362.001 73.0627 361.341 74.324 360.491 75.292C359.64 76.2893 358.599 77.008 357.367 77.448C356.164 77.9173 354.756 78.152 353.143 78.152H350.019ZM357.191 68.472V64.952H362.295V68.472H357.191ZM356.751 68.472L348.347 45.504H352.659L360.711 68.472H356.751Z" fill="white"/>
<defs>
<clipPath id="clip0_533_3737">
<rect width="195" height="70" fill="white"/>
</clipPath>
</defs>
</svg>
