<svg width="600" height="600" viewBox="0 0 600 600" fill="none" xmlns="http://www.w3.org/2000/svg">
<mask id="mask0_533_1792" style="mask-type:alpha" maskUnits="userSpaceOnUse" x="0" y="0" width="600" height="600">
<circle cx="300" cy="300" r="300" fill="#D9D9D9"/>
</mask>
<g mask="url(#mask0_533_1792)">
<path d="M258.493 517.467L270.762 508.389L270.662 514.547L258.376 523.614L258.493 517.467Z" fill="#E3F6FF"/>
<path d="M270.703 508.446L281.198 520.491L281.157 526.592L270.662 514.547L270.703 508.446Z" fill="url(#paint0_linear_533_1792)"/>
<path d="M270.662 514.547L281.157 526.593L268.871 535.66L258.376 523.614L270.662 514.547Z" fill="url(#paint1_linear_533_1792)"/>
<path d="M359.894 586.517L346.644 495.394L344.199 497.741L357.462 588.856L359.894 586.517Z" fill="url(#paint2_linear_533_1792)"/>
<path d="M357.462 588.856L344.199 497.741L338.536 498.5L351.799 589.616L357.462 588.856Z" fill="url(#paint3_linear_533_1792)"/>
<path d="M340.981 496.154L338.536 498.5L344.199 497.741L346.644 495.394L340.981 496.154Z" fill="#B9E8FF"/>
<path d="M299.619 515.15L305.732 510.623L308.898 517.332L302.785 521.859L299.619 515.15Z" fill="#E3FFE9"/>
<path d="M305.732 510.623L310.53 512.148L313.695 518.857L308.898 517.332L305.732 510.623Z" fill="url(#paint4_linear_533_1792)"/>
<path d="M308.897 517.332L313.695 518.857L307.582 523.384L302.785 521.859L308.897 517.332Z" fill="url(#paint5_linear_533_1792)"/>
<path d="M135.244 419.377L56.1764 468.111L59.2301 469.386L138.298 420.653L135.244 419.377Z" fill="url(#paint6_linear_533_1792)"/>
<path d="M138.298 420.653L59.2303 469.386L62.146 474.174L141.192 425.445L138.298 420.653Z" fill="url(#paint7_linear_533_1792)"/>
<path d="M59.079 472.89L62.1459 474.174L59.2302 469.387L56.1765 468.111L59.079 472.89Z" fill="url(#paint8_linear_533_1792)"/>
<path d="M231.559 485.921L201.576 528.634L226.174 533.485L231.559 485.921Z" fill="url(#paint9_linear_533_1792)"/>
<path d="M231.559 485.921L203.525 518.76L201.576 528.634L231.559 485.921Z" fill="url(#paint10_linear_533_1792)"/>
<path d="M446.136 140.051L437.267 156.062L421.216 148.99L430.113 132.957L446.136 140.051Z" fill="url(#paint11_linear_533_1792)"/>
<path d="M421.216 148.99L416.748 141.696L425.645 125.663L430.114 132.957L421.216 148.99Z" fill="url(#paint12_linear_533_1792)"/>
<path d="M430.114 132.957L425.645 125.663L441.669 132.757L446.137 140.051L430.114 132.957Z" fill="#E3F6FF"/>
<path d="M392.419 100.806L403.719 104.873L397.67 114.918L386.37 110.851L392.419 100.806Z" fill="url(#paint13_linear_533_1792)"/>
<path d="M403.719 104.873L405.922 112.497L399.881 122.557L397.67 114.918L403.719 104.873Z" fill="url(#paint14_linear_533_1792)"/>
<path d="M397.67 114.918L399.882 122.557L388.581 118.49L386.37 110.851L397.67 114.918Z" fill="url(#paint15_linear_533_1792)"/>
<path d="M502.409 227.771L496.428 239.229L487.199 230.591L493.166 219.146L502.409 227.771Z" fill="url(#paint16_linear_533_1792)"/>
<path d="M502.409 227.771L512.284 226.455L506.303 237.912L496.428 239.229L502.409 227.771Z" fill="url(#paint17_linear_533_1792)"/>
<path d="M493.166 219.146L503.041 217.829L512.285 226.455L502.409 227.771L493.166 219.146Z" fill="url(#paint18_linear_533_1792)"/>
<path d="M504.558 357.963L507.261 369.11L496.05 368.737L493.344 357.607L504.558 357.963Z" fill="url(#paint19_linear_533_1792)"/>
<path d="M504.558 357.963L510.382 351.312L513.085 362.458L507.261 369.11L504.558 357.963Z" fill="url(#paint20_linear_533_1792)"/>
<path d="M493.344 357.607L499.168 350.956L510.382 351.312L504.558 357.963L493.344 357.607Z" fill="url(#paint21_linear_533_1792)"/>
<path d="M478.521 402.002L563.212 439.396L562.514 436.067L477.822 398.673L478.521 402.002Z" fill="url(#paint22_linear_533_1792)"/>
<path d="M477.822 398.673L562.514 436.067L564.891 430.831L480.21 393.449L477.822 398.673Z" fill="url(#paint23_linear_533_1792)"/>
<path d="M565.579 434.17L564.891 430.831L562.514 436.067L563.212 439.396L565.579 434.17Z" fill="#FEFFB9"/>
<path d="M465.813 433.929L470.498 446.549L457.533 448.614L452.848 435.994L465.813 433.929Z" fill="#F9E4D4"/>
<path d="M470.498 446.549L465.559 453.933L452.591 456.016L457.533 448.614L470.498 446.549Z" fill="#FBAA71"/>
<path d="M457.533 448.614L452.591 456.016L447.909 443.377L452.848 435.994L457.533 448.614Z" fill="#F9D0AE"/>
<path d="M506.669 269.249L514.93 273.998L508.813 280.995L500.553 276.246L506.669 269.249Z" fill="#E3F6FF"/>
<path d="M514.93 273.999L515.583 280.271L509.467 287.268L508.814 280.996L514.93 273.999Z" fill="url(#paint24_linear_533_1792)"/>
<path d="M508.813 280.995L509.467 287.268L501.206 282.518L500.553 276.246L508.813 280.995Z" fill="url(#paint25_linear_533_1792)"/>
<path d="M377.006 489.124L394.726 542.008L414.503 523.927L377.006 489.124Z" fill="url(#paint26_linear_533_1792)"/>
<path d="M377.006 489.124L387.47 534.068L394.726 542.008L377.006 489.124Z" fill="url(#paint27_linear_533_1792)"/>
<path d="M498.82 318.915L560.735 313.746L550.247 295.261L498.82 318.915Z" fill="url(#paint28_linear_533_1792)"/>
<path d="M498.82 318.915L549.749 330.232L560.735 313.746L498.82 318.915Z" fill="#E38BA2"/>
<path d="M469.191 502.096L420 458.354L419.624 462.181L468.815 505.922L469.191 502.096Z" fill="url(#paint29_linear_533_1792)"/>
<path d="M468.782 505.947L419.597 462.203L415.284 467.053L464.468 510.797L468.782 505.947Z" fill="url(#paint30_linear_533_1792)"/>
<path d="M415.69 463.188L415.314 467.015L419.625 462.181L420 458.354L415.69 463.188Z" fill="url(#paint31_linear_533_1792)"/>
<path d="M511.057 130.39L444.497 182.913L449.265 184.252L515.825 131.728L511.057 130.39Z" fill="url(#paint32_linear_533_1792)"/>
<path d="M515.849 131.776L449.287 184.291L454.465 190.854L521.027 138.34L515.849 131.776Z" fill="url(#paint33_linear_533_1792)"/>
<path d="M449.655 189.469L454.423 190.807L449.265 184.252L444.497 182.913L449.655 189.469Z" fill="url(#paint34_linear_533_1792)"/>
<path d="M338.614 92.0808L326.345 101.159L326.446 95.0007L338.732 85.9331L338.614 92.0808Z" fill="#E3F6FF"/>
<path d="M326.405 101.102L315.909 89.0562L315.95 82.9551L326.446 95.0009L326.405 101.102Z" fill="url(#paint35_linear_533_1792)"/>
<path d="M326.446 95.0007L315.95 82.9549L328.236 73.8873L338.732 85.9331L326.446 95.0007Z" fill="url(#paint36_linear_533_1792)"/>
<path d="M237.214 23.0305L250.463 114.153L252.908 111.807L239.645 20.6913L237.214 23.0305Z" fill="url(#paint37_linear_533_1792)"/>
<path d="M239.645 20.6914L252.908 111.807L258.572 111.047L245.309 19.9317L239.645 20.6914Z" fill="url(#paint38_linear_533_1792)"/>
<path d="M256.127 113.394L258.572 111.047L252.908 111.807L250.463 114.153L256.127 113.394Z" fill="#B9E8FF"/>
<path d="M297.488 94.3981L291.375 98.9249L288.21 92.2157L294.323 87.6889L297.488 94.3981Z" fill="#E3FFE9"/>
<path d="M291.375 98.925L286.578 97.3997L283.412 90.6906L288.21 92.2158L291.375 98.925Z" fill="url(#paint39_linear_533_1792)"/>
<path d="M288.21 92.2158L283.412 90.6905L289.525 86.1637L294.323 87.689L288.21 92.2158Z" fill="url(#paint40_linear_533_1792)"/>
<path d="M355.34 113.833L385.323 71.1198L360.725 66.2681L355.34 113.833Z" fill="url(#paint41_linear_533_1792)"/>
<path d="M355.34 113.833L383.374 80.9931L385.323 71.1198L355.34 113.833Z" fill="url(#paint42_linear_533_1792)"/>
<path d="M146.433 461.735L155.302 445.723L171.354 452.796L162.456 468.829L146.433 461.735Z" fill="url(#paint43_linear_533_1792)"/>
<path d="M171.354 452.796L175.822 460.09L166.924 476.123L162.456 468.828L171.354 452.796Z" fill="url(#paint44_linear_533_1792)"/>
<path d="M162.456 468.829L166.924 476.123L150.901 469.029L146.433 461.735L162.456 468.829Z" fill="#E3F6FF"/>
<path d="M197.475 491.778L190.547 489.285L194.256 483.127L201.184 485.62L197.475 491.778Z" fill="url(#paint45_linear_533_1792)"/>
<path d="M190.547 489.285L189.196 484.611L192.9 478.444L194.256 483.127L190.547 489.285Z" fill="url(#paint46_linear_533_1792)"/>
<path d="M194.256 483.127L192.9 478.444L199.828 480.937L201.183 485.62L194.256 483.127Z" fill="url(#paint47_linear_533_1792)"/>
<path d="M104.07 386.652L110.051 375.194L119.28 383.832L113.313 395.278L104.07 386.652Z" fill="url(#paint48_linear_533_1792)"/>
<path d="M104.07 386.652L94.1948 387.969L100.176 376.511L110.051 375.195L104.07 386.652Z" fill="url(#paint49_linear_533_1792)"/>
<path d="M113.313 395.278L103.438 396.595L94.1947 387.969L104.07 386.652L113.313 395.278Z" fill="url(#paint50_linear_533_1792)"/>
<path d="M90.6684 251.003L88.7714 243.182L96.6379 243.444L98.5367 251.253L90.6684 251.003Z" fill="url(#paint51_linear_533_1792)"/>
<path d="M90.6685 251.003L86.5821 255.67L84.6851 247.849L88.7715 243.182L90.6685 251.003Z" fill="url(#paint52_linear_533_1792)"/>
<path d="M98.5366 251.253L94.4502 255.92L86.5819 255.67L90.6684 251.003L98.5366 251.253Z" fill="url(#paint53_linear_533_1792)"/>
<path d="M116.727 212.202L58.9115 182.588L59.2666 184.948L117.082 214.562L116.727 212.202Z" fill="url(#paint54_linear_533_1792)"/>
<path d="M117.082 214.562L59.2666 184.948L57.3896 188.519L115.199 218.125L117.082 214.562Z" fill="url(#paint55_linear_533_1792)"/>
<path d="M57.0429 186.153L57.3896 188.519L59.2666 184.947L58.9115 182.588L57.0429 186.153Z" fill="#FEFFB9"/>
<path d="M124.34 179.725L119.654 167.104L132.619 165.039L137.305 177.66L124.34 179.725Z" fill="#F9E4D4"/>
<path d="M119.655 167.104L124.594 159.721L137.562 157.637L132.62 165.039L119.655 167.104Z" fill="#FBAA71"/>
<path d="M132.619 165.039L137.561 157.637L142.244 170.276L137.305 177.66L132.619 165.039Z" fill="#F9D0AE"/>
<path d="M99.184 345.722L90.9232 340.973L97.0397 333.976L105.3 338.726L99.184 345.722Z" fill="#E3F6FF"/>
<path d="M90.9229 340.973L90.2698 334.7L96.3863 327.703L97.0394 333.976L90.9229 340.973Z" fill="url(#paint56_linear_533_1792)"/>
<path d="M97.0396 333.976L96.3865 327.703L104.647 332.453L105.3 338.726L97.0396 333.976Z" fill="url(#paint57_linear_533_1792)"/>
<path d="M220.102 120.424L202.381 67.5397L182.604 85.6204L220.102 120.424Z" fill="url(#paint58_linear_533_1792)"/>
<path d="M220.102 120.424L209.637 75.4793L202.381 67.5397L220.102 120.424Z" fill="url(#paint59_linear_533_1792)"/>
<path d="M106.182 293.161L44.2662 298.33L54.7543 316.815L106.182 293.161Z" fill="url(#paint60_linear_533_1792)"/>
<path d="M106.182 293.161L55.2531 281.844L44.2662 298.33L106.182 293.161Z" fill="#E38BA2"/>
<path d="M126.683 103.016L169.52 152.997L170.408 149.256L127.572 99.2755L126.683 103.016Z" fill="url(#paint61_linear_533_1792)"/>
<path d="M127.608 99.2556L170.438 149.237L175.367 145.014L132.537 95.0322L127.608 99.2556Z" fill="url(#paint62_linear_533_1792)"/>
<path d="M174.443 148.789L175.331 145.048L170.408 149.256L169.52 152.997L174.443 148.789Z" fill="url(#paint63_linear_533_1792)"/>
</g>
<defs>
<linearGradient id="paint0_linear_533_1792" x1="284.18" y1="516.755" x2="270.314" y2="518.043" gradientUnits="userSpaceOnUse">
<stop stop-color="#85D5FF"/>
<stop offset="0.18" stop-color="#7DCEFA"/>
<stop offset="0.65" stop-color="#6BC0EF"/>
<stop offset="1" stop-color="#65BBEB"/>
</linearGradient>
<linearGradient id="paint1_linear_533_1792" x1="264.762" y1="533.084" x2="274.77" y2="517.123" gradientUnits="userSpaceOnUse">
<stop stop-color="#D0EDFB"/>
<stop offset="0.56" stop-color="#C0E9FE"/>
<stop offset="1" stop-color="#BAE8FF"/>
</linearGradient>
<linearGradient id="paint2_linear_533_1792" x1="371.864" y1="525.884" x2="341.012" y2="551.228" gradientUnits="userSpaceOnUse">
<stop stop-color="#D0EDFB"/>
<stop offset="0.56" stop-color="#C0E9FE"/>
<stop offset="1" stop-color="#BAE8FF"/>
</linearGradient>
<linearGradient id="paint3_linear_533_1792" x1="368.397" y1="526.95" x2="336.645" y2="553.03" gradientUnits="userSpaceOnUse">
<stop stop-color="#85D5FF"/>
<stop offset="0.18" stop-color="#7DCEFA"/>
<stop offset="0.65" stop-color="#6BC0EF"/>
<stop offset="1" stop-color="#65BBEB"/>
</linearGradient>
<linearGradient id="paint4_linear_533_1792" x1="313.239" y1="499.184" x2="312.041" y2="490.014" gradientUnits="userSpaceOnUse">
<stop stop-color="#85FFA7"/>
<stop offset="0.18" stop-color="#7DFAB7"/>
<stop offset="0.65" stop-color="#6BEFB8"/>
<stop offset="1" stop-color="#65EBD3"/>
</linearGradient>
<linearGradient id="paint5_linear_533_1792" x1="307.314" y1="523.3" x2="309.152" y2="517.411" gradientUnits="userSpaceOnUse">
<stop stop-color="#D0FBD4"/>
<stop offset="0.56" stop-color="#C0FEC2"/>
<stop offset="1" stop-color="#BAFFC1"/>
</linearGradient>
<linearGradient id="paint6_linear_533_1792" x1="78.6411" y1="436.399" x2="114.504" y2="454.815" gradientUnits="userSpaceOnUse">
<stop stop-color="#FCFCFC"/>
<stop offset="0.35" stop-color="#FDF6F7"/>
<stop offset="1" stop-color="#FFF0F1"/>
</linearGradient>
<linearGradient id="paint7_linear_533_1792" x1="80.9522" y1="439.096" x2="117.832" y2="458.034" gradientUnits="userSpaceOnUse">
<stop stop-color="#FCFCFC"/>
<stop offset="0.12" stop-color="#F9F7F7"/>
<stop offset="0.63" stop-color="#F0E5E6"/>
<stop offset="1" stop-color="#EDDFE0"/>
</linearGradient>
<linearGradient id="paint8_linear_533_1792" x1="56.1146" y1="471.122" x2="60.8251" y2="471.154" gradientUnits="userSpaceOnUse">
<stop stop-color="#FCFCFC"/>
<stop offset="1" stop-color="white"/>
</linearGradient>
<linearGradient id="paint9_linear_533_1792" x1="199.699" y1="538.465" x2="232.636" y2="498.193" gradientUnits="userSpaceOnUse">
<stop stop-color="#FCCAC5"/>
<stop offset="0.06" stop-color="#FBC5C2"/>
<stop offset="0.43" stop-color="#F6A9AE"/>
<stop offset="0.76" stop-color="#F297A2"/>
<stop offset="1" stop-color="#F1919E"/>
</linearGradient>
<linearGradient id="paint10_linear_533_1792" x1="190.737" y1="531.135" x2="223.673" y2="490.864" gradientUnits="userSpaceOnUse">
<stop stop-color="#FCE9E2"/>
<stop offset="0.06" stop-color="#FBE4DF"/>
<stop offset="0.43" stop-color="#F6C8CA"/>
<stop offset="0.76" stop-color="#F2B6BD"/>
<stop offset="1" stop-color="#F1B0B9"/>
</linearGradient>
<linearGradient id="paint11_linear_533_1792" x1="422.144" y1="142.782" x2="445.211" y2="146.234" gradientUnits="userSpaceOnUse">
<stop stop-color="#85D5FF"/>
<stop offset="0.18" stop-color="#7DCEFA"/>
<stop offset="0.65" stop-color="#6BC0EF"/>
<stop offset="1" stop-color="#65BBEB"/>
</linearGradient>
<linearGradient id="paint12_linear_533_1792" x1="421.079" y1="146.685" x2="425.794" y2="127.894" gradientUnits="userSpaceOnUse">
<stop stop-color="#D0EDFB"/>
<stop offset="0.56" stop-color="#C0E9FE"/>
<stop offset="1" stop-color="#BAE8FF"/>
</linearGradient>
<linearGradient id="paint13_linear_533_1792" x1="389.033" y1="113.446" x2="401.775" y2="102.222" gradientUnits="userSpaceOnUse">
<stop stop-color="#FCFCFC"/>
<stop offset="1" stop-color="white"/>
</linearGradient>
<linearGradient id="paint14_linear_533_1792" x1="396.635" y1="116.469" x2="406.965" y2="110.961" gradientUnits="userSpaceOnUse">
<stop stop-color="#FCE3E4"/>
<stop offset="0.5" stop-color="#F2D7D8"/>
<stop offset="1" stop-color="#EDD1D2"/>
</linearGradient>
<linearGradient id="paint15_linear_533_1792" x1="388.85" y1="118.993" x2="397.41" y2="114.43" gradientUnits="userSpaceOnUse">
<stop stop-color="#FCFCFC"/>
<stop offset="0.35" stop-color="#FDF6F7"/>
<stop offset="1" stop-color="#FFF0F1"/>
</linearGradient>
<linearGradient id="paint16_linear_533_1792" x1="489.162" y1="222.54" x2="500.432" y2="235.834" gradientUnits="userSpaceOnUse">
<stop stop-color="#FCFCFC"/>
<stop offset="0.35" stop-color="#F6F8FD"/>
<stop offset="1" stop-color="#F0F3FF"/>
</linearGradient>
<linearGradient id="paint17_linear_533_1792" x1="501.041" y1="228.931" x2="507.671" y2="236.752" gradientUnits="userSpaceOnUse">
<stop stop-color="#E3EAFC"/>
<stop offset="0.5" stop-color="#D7DFF2"/>
<stop offset="1" stop-color="#D2D1ED"/>
</linearGradient>
<linearGradient id="paint18_linear_533_1792" x1="496.925" y1="215.959" x2="508.525" y2="229.642" gradientUnits="userSpaceOnUse">
<stop stop-color="#FCFCFC"/>
<stop offset="1" stop-color="white"/>
</linearGradient>
<linearGradient id="paint19_linear_533_1792" x1="492.655" y1="362.214" x2="507.951" y2="364.502" gradientUnits="userSpaceOnUse">
<stop stop-color="#FCFCFC"/>
<stop offset="0.35" stop-color="#FDF6F7"/>
<stop offset="1" stop-color="#FFF0F1"/>
</linearGradient>
<linearGradient id="paint20_linear_533_1792" x1="504.322" y1="359.537" x2="513.321" y2="360.884" gradientUnits="userSpaceOnUse">
<stop stop-color="#FCE3E4"/>
<stop offset="0.5" stop-color="#F2D7D8"/>
<stop offset="1" stop-color="#EDD1D2"/>
</linearGradient>
<linearGradient id="paint21_linear_533_1792" x1="493.991" y1="353.282" x2="509.735" y2="355.637" gradientUnits="userSpaceOnUse">
<stop stop-color="#FCFCFC"/>
<stop offset="1" stop-color="white"/>
</linearGradient>
<linearGradient id="paint22_linear_533_1792" x1="521.639" y1="440.784" x2="516.393" y2="401.061" gradientUnits="userSpaceOnUse">
<stop stop-color="#FBF9D0"/>
<stop offset="0.56" stop-color="#FDFEC0"/>
<stop offset="1" stop-color="#FEFFBA"/>
</linearGradient>
<linearGradient id="paint23_linear_533_1792" x1="522.56" y1="437.244" x2="517.165" y2="396.364" gradientUnits="userSpaceOnUse">
<stop stop-color="#FFFA85"/>
<stop offset="0.18" stop-color="#FADF7D"/>
<stop offset="0.65" stop-color="#EFE26B"/>
<stop offset="1" stop-color="#EBD665"/>
</linearGradient>
<linearGradient id="paint24_linear_533_1792" x1="531.825" y1="276.885" x2="541.753" y2="270.914" gradientUnits="userSpaceOnUse">
<stop stop-color="#85D5FF"/>
<stop offset="0.18" stop-color="#7DCEFA"/>
<stop offset="0.65" stop-color="#6BC0EF"/>
<stop offset="1" stop-color="#65BBEB"/>
</linearGradient>
<linearGradient id="paint25_linear_533_1792" x1="501.168" y1="282.169" x2="508.85" y2="281.328" gradientUnits="userSpaceOnUse">
<stop stop-color="#D0EDFB"/>
<stop offset="0.56" stop-color="#C0E9FE"/>
<stop offset="1" stop-color="#BAE8FF"/>
</linearGradient>
<linearGradient id="paint26_linear_533_1792" x1="401.992" y1="549.858" x2="388.245" y2="495.982" gradientUnits="userSpaceOnUse">
<stop stop-color="#FCE9C5"/>
<stop offset="0.06" stop-color="#FBEBC2"/>
<stop offset="0.43" stop-color="#F6E5A9"/>
<stop offset="0.76" stop-color="#F2E997"/>
<stop offset="1" stop-color="#F1E791"/>
</linearGradient>
<linearGradient id="paint27_linear_533_1792" x1="390.002" y1="552.917" x2="376.255" y2="499.042" gradientUnits="userSpaceOnUse">
<stop stop-color="#FCF9E2"/>
<stop offset="0.06" stop-color="#FBF8DF"/>
<stop offset="0.43" stop-color="#F5F6C8"/>
<stop offset="0.76" stop-color="#F2E8B6"/>
<stop offset="1" stop-color="#F0F1B0"/>
</linearGradient>
<linearGradient id="paint28_linear_533_1792" x1="556.215" y1="304.234" x2="501.57" y2="318.945" gradientUnits="userSpaceOnUse">
<stop stop-color="#FCE9E2"/>
<stop offset="0.06" stop-color="#FBE4DF"/>
<stop offset="0.43" stop-color="#F6C8CA"/>
<stop offset="0.76" stop-color="#F2B6BD"/>
<stop offset="1" stop-color="#F1B0B9"/>
</linearGradient>
<linearGradient id="paint29_linear_533_1792" x1="447.643" y1="462.753" x2="442.468" y2="492.423" gradientUnits="userSpaceOnUse">
<stop stop-color="#FCFCFC"/>
<stop offset="0.35" stop-color="#FDF6F7"/>
<stop offset="1" stop-color="#FFF0F1"/>
</linearGradient>
<linearGradient id="paint30_linear_533_1792" x1="445.578" y1="466.633" x2="440.171" y2="497.612" gradientUnits="userSpaceOnUse">
<stop stop-color="#FCFCFC"/>
<stop offset="0.12" stop-color="#F9F7F7"/>
<stop offset="0.63" stop-color="#F0E5E6"/>
<stop offset="1" stop-color="#EDDFE0"/>
</linearGradient>
<linearGradient id="paint31_linear_533_1792" x1="416.77" y1="459.42" x2="418.339" y2="464.642" gradientUnits="userSpaceOnUse">
<stop stop-color="#FCFCFC"/>
<stop offset="1" stop-color="white"/>
</linearGradient>
<linearGradient id="paint32_linear_533_1792" x1="456.306" y1="148.848" x2="492.766" y2="162.099" gradientUnits="userSpaceOnUse">
<stop stop-color="#FCFCFC"/>
<stop offset="0.35" stop-color="#FDF6F7"/>
<stop offset="1" stop-color="#FFF0F1"/>
</linearGradient>
<linearGradient id="paint33_linear_533_1792" x1="460.761" y1="152.342" x2="498.83" y2="166.182" gradientUnits="userSpaceOnUse">
<stop stop-color="#FCFCFC"/>
<stop offset="0.12" stop-color="#F9F7F7"/>
<stop offset="0.63" stop-color="#F0E5E6"/>
<stop offset="1" stop-color="#EDDFE0"/>
</linearGradient>
<linearGradient id="paint34_linear_533_1792" x1="445.12" y1="187.249" x2="452.096" y2="186.437" gradientUnits="userSpaceOnUse">
<stop stop-color="#FCFCFC"/>
<stop offset="1" stop-color="white"/>
</linearGradient>
<linearGradient id="paint35_linear_533_1792" x1="312.928" y1="92.7927" x2="326.793" y2="91.5047" gradientUnits="userSpaceOnUse">
<stop stop-color="#85D5FF"/>
<stop offset="0.18" stop-color="#7DCEFA"/>
<stop offset="0.65" stop-color="#6BC0EF"/>
<stop offset="1" stop-color="#65BBEB"/>
</linearGradient>
<linearGradient id="paint36_linear_533_1792" x1="332.345" y1="76.4639" x2="322.337" y2="92.4241" gradientUnits="userSpaceOnUse">
<stop stop-color="#D0EDFB"/>
<stop offset="0.56" stop-color="#C0E9FE"/>
<stop offset="1" stop-color="#BAE8FF"/>
</linearGradient>
<linearGradient id="paint37_linear_533_1792" x1="225.243" y1="83.6634" x2="256.096" y2="58.3191" gradientUnits="userSpaceOnUse">
<stop stop-color="#D0EDFB"/>
<stop offset="0.56" stop-color="#C0E9FE"/>
<stop offset="1" stop-color="#BAE8FF"/>
</linearGradient>
<linearGradient id="paint38_linear_533_1792" x1="228.71" y1="82.5973" x2="260.463" y2="56.5171" gradientUnits="userSpaceOnUse">
<stop stop-color="#85D5FF"/>
<stop offset="0.18" stop-color="#7DCEFA"/>
<stop offset="0.65" stop-color="#6BC0EF"/>
<stop offset="1" stop-color="#65BBEB"/>
</linearGradient>
<linearGradient id="paint39_linear_533_1792" x1="283.868" y1="110.364" x2="285.066" y2="119.534" gradientUnits="userSpaceOnUse">
<stop stop-color="#85FFA7"/>
<stop offset="0.18" stop-color="#7DFAB7"/>
<stop offset="0.65" stop-color="#6BEFB8"/>
<stop offset="1" stop-color="#65EBD3"/>
</linearGradient>
<linearGradient id="paint40_linear_533_1792" x1="289.793" y1="86.2472" x2="287.955" y2="92.1362" gradientUnits="userSpaceOnUse">
<stop stop-color="#D0FBD4"/>
<stop offset="0.56" stop-color="#C0FEC2"/>
<stop offset="1" stop-color="#BAFFC1"/>
</linearGradient>
<linearGradient id="paint41_linear_533_1792" x1="387.2" y1="61.2889" x2="354.263" y2="101.56" gradientUnits="userSpaceOnUse">
<stop stop-color="#FCCAC5"/>
<stop offset="0.06" stop-color="#FBC5C2"/>
<stop offset="0.43" stop-color="#F6A9AE"/>
<stop offset="0.76" stop-color="#F297A2"/>
<stop offset="1" stop-color="#F1919E"/>
</linearGradient>
<linearGradient id="paint42_linear_533_1792" x1="396.162" y1="68.6187" x2="363.226" y2="108.89" gradientUnits="userSpaceOnUse">
<stop stop-color="#FCE9E2"/>
<stop offset="0.06" stop-color="#FBE4DF"/>
<stop offset="0.43" stop-color="#F6C8CA"/>
<stop offset="0.76" stop-color="#F2B6BD"/>
<stop offset="1" stop-color="#F1B0B9"/>
</linearGradient>
<linearGradient id="paint43_linear_533_1792" x1="170.425" y1="459.003" x2="147.358" y2="455.552" gradientUnits="userSpaceOnUse">
<stop stop-color="#85D5FF"/>
<stop offset="0.18" stop-color="#7DCEFA"/>
<stop offset="0.65" stop-color="#6BC0EF"/>
<stop offset="1" stop-color="#65BBEB"/>
</linearGradient>
<linearGradient id="paint44_linear_533_1792" x1="171.491" y1="455.101" x2="166.776" y2="473.892" gradientUnits="userSpaceOnUse">
<stop stop-color="#D0EDFB"/>
<stop offset="0.56" stop-color="#C0E9FE"/>
<stop offset="1" stop-color="#BAE8FF"/>
</linearGradient>
<linearGradient id="paint45_linear_533_1792" x1="199.551" y1="484.029" x2="191.739" y2="490.91" gradientUnits="userSpaceOnUse">
<stop stop-color="#FCFCFC"/>
<stop offset="1" stop-color="white"/>
</linearGradient>
<linearGradient id="paint46_linear_533_1792" x1="194.89" y1="482.176" x2="188.557" y2="485.553" gradientUnits="userSpaceOnUse">
<stop stop-color="#FCE3E4"/>
<stop offset="0.5" stop-color="#F2D7D8"/>
<stop offset="1" stop-color="#EDD1D2"/>
</linearGradient>
<linearGradient id="paint47_linear_533_1792" x1="199.663" y1="480.628" x2="194.415" y2="483.426" gradientUnits="userSpaceOnUse">
<stop stop-color="#FCFCFC"/>
<stop offset="0.35" stop-color="#FDF6F7"/>
<stop offset="1" stop-color="#FFF0F1"/>
</linearGradient>
<linearGradient id="paint48_linear_533_1792" x1="117.318" y1="391.883" x2="106.047" y2="378.589" gradientUnits="userSpaceOnUse">
<stop stop-color="#FCFCFC"/>
<stop offset="0.35" stop-color="#F6F8FD"/>
<stop offset="1" stop-color="#F0F3FF"/>
</linearGradient>
<linearGradient id="paint49_linear_533_1792" x1="105.438" y1="385.492" x2="98.8078" y2="377.671" gradientUnits="userSpaceOnUse">
<stop stop-color="#E3EAFC"/>
<stop offset="0.5" stop-color="#D7DFF2"/>
<stop offset="1" stop-color="#D2D1ED"/>
</linearGradient>
<linearGradient id="paint50_linear_533_1792" x1="109.554" y1="398.465" x2="97.954" y2="384.782" gradientUnits="userSpaceOnUse">
<stop stop-color="#FCFCFC"/>
<stop offset="1" stop-color="white"/>
</linearGradient>
<linearGradient id="paint51_linear_533_1792" x1="99.0203" y1="248.021" x2="88.2878" y2="246.415" gradientUnits="userSpaceOnUse">
<stop stop-color="#FCFCFC"/>
<stop offset="0.35" stop-color="#FDF6F7"/>
<stop offset="1" stop-color="#FFF0F1"/>
</linearGradient>
<linearGradient id="paint52_linear_533_1792" x1="90.8338" y1="249.898" x2="84.5198" y2="248.954" gradientUnits="userSpaceOnUse">
<stop stop-color="#FCE3E4"/>
<stop offset="0.5" stop-color="#F2D7D8"/>
<stop offset="1" stop-color="#EDD1D2"/>
</linearGradient>
<linearGradient id="paint53_linear_533_1792" x1="98.0826" y1="254.288" x2="87.036" y2="252.635" gradientUnits="userSpaceOnUse">
<stop stop-color="#FCFCFC"/>
<stop offset="1" stop-color="white"/>
</linearGradient>
<linearGradient id="paint54_linear_533_1792" x1="88.0898" y1="183.294" x2="90.16" y2="211.332" gradientUnits="userSpaceOnUse">
<stop stop-color="#FBF9D0"/>
<stop offset="0.56" stop-color="#FDFEC0"/>
<stop offset="1" stop-color="#FEFFBA"/>
</linearGradient>
<linearGradient id="paint55_linear_533_1792" x1="87.3014" y1="185.737" x2="89.4301" y2="214.591" gradientUnits="userSpaceOnUse">
<stop stop-color="#FFFA85"/>
<stop offset="0.18" stop-color="#FADF7D"/>
<stop offset="0.65" stop-color="#EFE26B"/>
<stop offset="1" stop-color="#EBD665"/>
</linearGradient>
<linearGradient id="paint56_linear_533_1792" x1="74.0276" y1="338.087" x2="64.0999" y2="344.057" gradientUnits="userSpaceOnUse">
<stop stop-color="#85D5FF"/>
<stop offset="0.18" stop-color="#7DCEFA"/>
<stop offset="0.65" stop-color="#6BC0EF"/>
<stop offset="1" stop-color="#65BBEB"/>
</linearGradient>
<linearGradient id="paint57_linear_533_1792" x1="104.686" y1="332.802" x2="97.0032" y2="333.643" gradientUnits="userSpaceOnUse">
<stop stop-color="#D0EDFB"/>
<stop offset="0.56" stop-color="#C0E9FE"/>
<stop offset="1" stop-color="#BAE8FF"/>
</linearGradient>
<linearGradient id="paint58_linear_533_1792" x1="195.116" y1="59.6893" x2="208.863" y2="113.565" gradientUnits="userSpaceOnUse">
<stop stop-color="#FCE9C5"/>
<stop offset="0.06" stop-color="#FBEBC2"/>
<stop offset="0.43" stop-color="#F6E5A9"/>
<stop offset="0.76" stop-color="#F2E997"/>
<stop offset="1" stop-color="#F1E791"/>
</linearGradient>
<linearGradient id="paint59_linear_533_1792" x1="207.105" y1="56.63" x2="220.852" y2="110.506" gradientUnits="userSpaceOnUse">
<stop stop-color="#FCF9E2"/>
<stop offset="0.06" stop-color="#FBF8DF"/>
<stop offset="0.43" stop-color="#F5F6C8"/>
<stop offset="0.76" stop-color="#F2E8B6"/>
<stop offset="1" stop-color="#F0F1B0"/>
</linearGradient>
<linearGradient id="paint60_linear_533_1792" x1="48.7865" y1="307.842" x2="103.431" y2="293.131" gradientUnits="userSpaceOnUse">
<stop stop-color="#FCE9E2"/>
<stop offset="0.06" stop-color="#FBE4DF"/>
<stop offset="0.43" stop-color="#F6C8CA"/>
<stop offset="0.76" stop-color="#F2B6BD"/>
<stop offset="1" stop-color="#F1B0B9"/>
</linearGradient>
<linearGradient id="paint61_linear_533_1792" x1="142.724" y1="144.907" x2="151.856" y2="116.207" gradientUnits="userSpaceOnUse">
<stop stop-color="#FCFCFC"/>
<stop offset="0.35" stop-color="#FDF6F7"/>
<stop offset="1" stop-color="#FFF0F1"/>
</linearGradient>
<linearGradient id="paint62_linear_533_1792" x1="145.294" y1="141.342" x2="154.832" y2="111.375" gradientUnits="userSpaceOnUse">
<stop stop-color="#FCFCFC"/>
<stop offset="0.12" stop-color="#F9F7F7"/>
<stop offset="0.63" stop-color="#F0E5E6"/>
<stop offset="1" stop-color="#EDDFE0"/>
</linearGradient>
<linearGradient id="paint63_linear_533_1792" x1="172.864" y1="152.377" x2="172.014" y2="146.991" gradientUnits="userSpaceOnUse">
<stop stop-color="#FCFCFC"/>
<stop offset="1" stop-color="white"/>
</linearGradient>
</defs>
</svg>