<svg width="201" height="201" viewBox="0 0 201 201" fill="none" xmlns="http://www.w3.org/2000/svg">
<g clip-path="url(#clip0_543_1831)">
<g opacity="0.4">
<path opacity="0.4" d="M100.5 188.482C83.0787 188.496 66.0447 183.342 51.5536 173.672C37.0624 164.002 25.7654 150.251 19.0921 134.158C12.4187 118.066 10.669 100.355 14.0643 83.268C17.4596 66.1808 25.8473 50.4847 38.166 38.166C50.4847 25.8473 66.1808 17.4596 83.268 14.0643C100.355 10.669 118.066 12.4187 134.158 19.0921C150.251 25.7654 164.002 37.0624 173.672 51.5536C183.342 66.0447 188.496 83.0787 188.482 100.5C188.44 123.821 179.157 146.175 162.666 162.666C146.175 179.157 123.821 188.44 100.5 188.482V188.482Z" fill="white"/>
<path opacity="0.4" d="M100.5 24.8938C115.453 24.8938 130.071 29.3281 142.505 37.6358C154.938 45.9435 164.629 57.7516 170.351 71.5668C176.073 85.382 177.571 100.584 174.653 115.25C171.736 129.916 164.535 143.388 153.962 153.962C143.388 164.535 129.916 171.736 115.25 174.653C100.584 177.571 85.382 176.073 71.5668 170.351C57.7516 164.629 45.9435 154.938 37.6358 142.505C29.3281 130.071 24.8938 115.453 24.8938 100.5C24.8938 80.448 32.8595 61.2173 47.0384 47.0384C61.2173 32.8595 80.448 24.8938 100.5 24.8938V24.8938ZM100.5 2.2916e-06C80.62 -0.0140671 61.1823 5.86819 44.6458 16.9027C28.1093 27.9372 15.2169 43.6283 7.59941 61.991C-0.0180999 80.3537 -2.01849 100.563 1.85129 120.063C5.72107 139.563 15.2872 157.477 29.3395 171.539C43.3918 185.601 61.2991 195.18 80.7961 199.064C100.293 202.947 120.504 200.961 138.872 193.357C157.24 185.752 172.94 172.871 183.987 156.342C195.033 139.814 200.929 120.38 200.929 100.5C200.901 73.8667 190.313 48.3313 171.487 29.492C152.661 10.6528 127.133 0.0470593 100.5 2.2916e-06V2.2916e-06Z" fill="#06B5B3"/>
</g>
<g opacity="0.8">
<path opacity="0.8" d="M100.5 181.369C84.4855 181.383 68.8266 176.647 55.5051 167.758C42.1836 158.87 31.7982 146.229 25.6632 131.436C19.5282 116.644 17.9193 100.363 21.0402 84.6556C24.161 68.9481 31.8713 54.5193 43.1953 43.1953C54.5193 31.8713 68.9481 24.161 84.6557 21.0401C100.363 17.9193 116.644 19.5282 131.436 25.6632C146.229 31.7982 158.87 42.1836 167.758 55.5051C176.647 68.8266 181.384 84.4854 181.369 100.5C181.327 121.935 172.793 142.48 157.637 157.637C142.48 172.793 121.935 181.327 100.5 181.369V181.369Z" fill="white"/>
<path opacity="0.8" d="M100.5 24.8938C115.453 24.8938 130.071 29.3281 142.505 37.6358C154.938 45.9435 164.629 57.7516 170.351 71.5668C176.073 85.382 177.571 100.584 174.653 115.25C171.736 129.916 164.535 143.388 153.962 153.962C143.388 164.535 129.916 171.736 115.25 174.653C100.584 177.571 85.382 176.073 71.5668 170.351C57.7516 164.629 45.9435 154.938 37.6358 142.505C29.3281 130.071 24.8939 115.453 24.8939 100.5C24.8939 80.448 32.8595 61.2173 47.0384 47.0384C61.2173 32.8595 80.448 24.8938 100.5 24.8938V24.8938ZM100.5 14.2251C83.4334 14.211 66.7461 19.259 52.5489 28.7304C38.3517 38.2019 27.2825 51.6713 20.7417 67.4347C14.2008 83.1981 12.4821 100.547 15.803 117.288C19.1239 134.028 27.3352 149.408 39.3981 161.48C51.4611 173.553 66.8337 181.777 83.5713 185.112C100.309 188.447 117.66 186.742 133.428 180.214C149.197 173.687 162.676 162.629 172.159 148.439C181.642 134.25 186.704 117.567 186.704 100.5C186.676 77.6394 177.587 55.7222 161.428 39.5507C145.27 23.3791 123.361 14.2721 100.5 14.2251V14.2251Z" fill="#06B5B3"/>
</g>
<path d="M141.261 73.4255C139.806 69.3266 137.517 65.6263 134.559 62.5935C131.492 59.5112 127.844 57.1661 123.862 55.7152C119.263 54.0426 114.43 53.2274 109.573 53.305H81.3747C79.0095 53.2287 76.6472 53.5392 74.3694 54.2258C72.7455 54.6875 71.274 55.6254 70.1207 56.9338C69.0296 58.3304 68.3051 60.0128 68.0217 61.8082C67.6195 64.011 67.4331 66.2527 67.4653 68.4969V143.021C67.255 146.799 68.072 150.562 69.8172 153.853C70.6775 155.124 71.8246 156.141 73.1514 156.809C74.4781 157.477 75.9413 157.773 77.4042 157.671C78.8938 157.81 80.3914 157.533 81.7517 156.869C83.112 156.205 84.2889 155.175 85.1682 153.88C86.8094 150.552 87.5702 146.806 87.3685 143.048V122.251H111.9C116.501 122.331 121.077 121.514 125.404 119.841C129.152 118.34 132.539 115.963 135.318 112.881C138.078 109.792 140.175 106.095 141.464 102.049C142.915 97.3889 143.625 92.5005 143.563 87.5884C143.632 82.7546 142.851 77.9501 141.261 73.4255V73.4255ZM122.471 84.9074L116.629 91.0004L118.045 99.639C118.163 100.267 118.147 100.915 117.999 101.535C117.852 102.155 117.576 102.732 117.193 103.224C116.809 103.715 116.328 104.107 115.784 104.373C115.24 104.638 114.647 104.77 114.049 104.757C113.406 104.756 112.773 104.589 112.203 104.27L104.97 100.208L97.8132 104.161C97.1518 104.54 96.4043 104.711 95.6563 104.656C94.9082 104.601 94.1898 104.321 93.583 103.849C92.9763 103.378 92.5057 102.733 92.2252 101.988C91.9446 101.244 91.8654 100.429 91.9965 99.639L93.3622 91.0004L87.4443 84.9074C86.9284 84.347 86.5669 83.6451 86.3994 82.8789C86.2319 82.1127 86.265 81.3119 86.4951 80.5645C86.7251 79.8172 87.1432 79.1522 87.7033 78.6428C88.2634 78.1334 88.9439 77.7992 89.6698 77.6771L97.8132 76.3231L101.43 68.4699C101.758 67.751 102.269 67.146 102.905 66.7244C103.54 66.3029 104.273 66.0819 105.021 66.0868C105.767 66.0882 106.498 66.3118 107.132 66.7326C107.766 67.1535 108.279 67.755 108.612 68.4699L112.228 76.3231L120.321 77.5958C121.06 77.7111 121.755 78.0459 122.325 78.5624C122.896 79.0788 123.32 79.7562 123.549 80.5176C123.778 81.279 123.803 82.0939 123.622 82.8699C123.44 83.6458 123.059 84.3517 122.521 84.9074H122.471Z" fill="#F36F31"/>
</g>
<defs>
<clipPath id="clip0_543_1831">
<rect width="201" height="201" fill="white"/>
</clipPath>
</defs>
</svg>
