<?xml version="1.0" standalone="no"?>
<!DOCTYPE svg PUBLIC "-//W3C//DTD SVG 20010904//EN"
 "http://www.w3.org/TR/2001/REC-SVG-20010904/DTD/svg10.dtd">
<svg version="1.0" xmlns="http://www.w3.org/2000/svg"
 width="1005.000000pt" height="1005.000000pt" viewBox="0 0 1005.000000 1005.000000"
 preserveAspectRatio="xMidYMid meet">
<metadata>
Created by potrace 1.14, written by Peter Selinger 2001-2017
</metadata>
<g transform="translate(0.000000,1005.000000) scale(0.100000,-0.100000)"
fill="#000000" stroke="none">
<path d="M4870 9333 c-1572 -56 -2997 -969 -3699 -2372 -178 -354 -297 -702
-376 -1096 -187 -935 -59 -1905 363 -2750 105 -211 149 -286 277 -480 623
-936 1589 -1593 2685 -1825 322 -68 566 -94 905 -93 695 1 1314 148 1935 459
1354 680 2241 2006 2361 3529 15 186 6 632 -16 805 -73 588 -244 1119 -514
1605 -674 1210 -1883 2022 -3261 2190 -124 15 -482 36 -550 33 -19 -1 -69 -3
-110 -5z m410 -533 c775 -55 1493 -335 2112 -825 146 -116 403 -367 532 -521
954 -1140 1154 -2730 511 -4062 -133 -274 -273 -497 -460 -734 -116 -146 -367
-403 -521 -532 -1140 -954 -2730 -1154 -4062 -511 -274 133 -497 273 -734 460
-146 116 -403 367 -532 521 -954 1140 -1154 2730 -511 4062 191 394 404 699
705 1006 503 514 1098 857 1791 1031 226 57 399 83 714 108 94 8 321 6 455 -3z"/>
<path d="M4910 7434 c-133 -28 -259 -115 -333 -227 -18 -29 -143 -275 -277
-547 -133 -272 -243 -496 -244 -497 -1 -1 -253 -38 -561 -83 -308 -44 -578
-85 -600 -91 -114 -31 -235 -123 -307 -233 -106 -163 -109 -396 -8 -561 18
-30 200 -217 451 -465 l420 -415 -95 -556 c-59 -340 -96 -582 -96 -625 0 -143
55 -272 160 -375 144 -142 358 -194 540 -131 30 11 279 137 553 281 275 143
505 261 512 261 6 0 238 -119 513 -265 276 -145 527 -272 559 -282 80 -24 230
-24 303 1 178 60 309 189 361 355 37 118 31 181 -70 766 -50 292 -93 539 -96
551 -4 17 73 97 406 420 418 406 468 462 510 572 30 78 37 225 15 309 -46 180
-180 327 -349 382 -36 12 -299 54 -621 101 -308 44 -561 81 -562 83 -1 1 -120
240 -264 531 -260 528 -261 529 -328 595 -78 77 -166 125 -267 146 -85 18
-140 18 -225 -1z"/>
</g>
</svg>
